<svg width="24" height="24" viewBox="0 0 24 24" fill="none" xmlns="http://www.w3.org/2000/svg">
<path d="M12 20.4C9.08337 20.4 6.50504 18.9067 5.00004 16.6667C5.03504 14.3333 9.66671 13.05 12 13.05C14.3334 13.05 18.965 14.3333 19 16.6667C18.2287 17.8151 17.1869 18.7563 15.9662 19.4074C14.7455 20.0584 13.3835 20.3993 12 20.4ZM12 3.83333C12.9283 3.83333 13.8185 4.20208 14.4749 4.85846C15.1313 5.51484 15.5 6.40507 15.5 7.33333C15.5 8.26159 15.1313 9.15183 14.4749 9.80821C13.8185 10.4646 12.9283 10.8333 12 10.8333C11.0718 10.8333 10.1815 10.4646 9.52517 9.80821C8.86879 9.15183 8.50004 8.26159 8.50004 7.33333C8.50004 6.40507 8.86879 5.51484 9.52517 4.85846C10.1815 4.20208 11.0718 3.83333 12 3.83333ZM12 0.333332C10.468 0.333332 8.95087 0.635099 7.5354 1.2214C6.11994 1.80771 4.83381 2.66707 3.75046 3.75042C1.56254 5.93834 0.333374 8.90581 0.333374 12C0.333374 15.0942 1.56254 18.0617 3.75046 20.2496C4.83381 21.3329 6.11994 22.1923 7.5354 22.7786C8.95087 23.3649 10.468 23.6667 12 23.6667C15.0942 23.6667 18.0617 22.4375 20.2496 20.2496C22.4375 18.0617 23.6667 15.0942 23.6667 12C23.6667 5.54833 18.4167 0.333332 12 0.333332Z" fill="white"/>
</svg>
