<svg width="130" height="130" viewBox="0 0 130 130" fill="none" xmlns="http://www.w3.org/2000/svg">
<path d="M105.625 130H24.375C10.9119 130 0 119.088 0 105.625V24.375C0 10.9119 10.9119 0 24.375 0H105.625C119.088 0 130 10.9119 130 24.375V105.625C130 119.088 119.088 130 105.625 130Z" fill="#FFE6E2"/>
<path d="M65 41.86C63.8788 41.86 62.9688 40.95 62.9688 39.8288V34.5313C62.9688 33.41 63.8788 32.5 65 32.5C66.1212 32.5 67.0312 33.41 67.0312 34.5313V39.8288C67.0312 40.95 66.1212 41.86 65 41.86Z" fill="#FD907E"/>
<path d="M82.7984 49.2325C82.2784 49.2325 81.7584 49.0334 81.3603 48.6394C80.5681 47.8472 80.5681 46.5594 81.3603 45.7672L85.11 42.0175C85.9021 41.2253 87.19 41.2253 87.9821 42.0175C88.7743 42.8097 88.7743 44.0975 87.9821 44.8897L84.2324 48.6394C83.8384 49.0334 83.3184 49.2325 82.7984 49.2325Z" fill="#FD907E"/>
<path d="M95.4694 67.0312H90.1719C89.0506 67.0312 88.1406 66.1212 88.1406 65C88.1406 63.8788 89.0506 62.9688 90.1719 62.9688H95.4694C96.5906 62.9688 97.5006 63.8788 97.5006 65C97.5006 66.1212 96.5906 67.0312 95.4694 67.0312Z" fill="#FD907E"/>
<path d="M86.5432 88.5753C86.0232 88.5753 85.5032 88.3762 85.1051 87.9821L81.3554 84.2324C80.5632 83.4403 80.5632 82.1524 81.3554 81.3603C82.1476 80.5681 83.4354 80.5681 84.2276 81.3603L87.9773 85.11C88.7695 85.9021 88.7695 87.1899 87.9773 87.9821C87.5832 88.3803 87.0632 88.5753 86.5432 88.5753Z" fill="#FD907E"/>
<path d="M43.4571 88.5753C42.9371 88.5753 42.4171 88.3762 42.0189 87.9821C41.2268 87.1899 41.2268 85.9021 42.0189 85.11L45.7686 81.3603C46.5608 80.5681 47.8486 80.5681 48.6408 81.3603C49.433 82.1524 49.433 83.4403 48.6408 84.2324L44.8911 87.9821C44.493 88.3803 43.9771 88.5753 43.4571 88.5753Z" fill="#FD907E"/>
<path d="M39.8288 67.0312H34.5313C33.41 67.0312 32.5 66.1212 32.5 65C32.5 63.8788 33.41 62.9688 34.5313 62.9688H39.8288C40.95 62.9688 41.86 63.8788 41.86 65C41.86 66.1212 40.95 67.0312 39.8288 67.0312Z" fill="#FD907E"/>
<path d="M47.2019 49.2325C46.6819 49.2325 46.1619 49.0334 45.7637 48.6394L42.0141 44.8897C41.2219 44.0975 41.2219 42.8097 42.0141 42.0175C42.8062 41.2253 44.0941 41.2253 44.8862 42.0175L48.6359 45.7672C49.4281 46.5594 49.4281 47.8472 48.6359 48.6394C48.2419 49.0334 47.7219 49.2325 47.2019 49.2325Z" fill="#FD907E"/>
<path d="M73.125 89.375V92.7591C73.125 95.3591 70.9841 97.5 68.3841 97.5H61.6119C59.3409 97.5 56.875 95.7653 56.875 91.975V89.375H73.125Z" fill="#FC573B"/>
<path d="M76.9434 50.2647C72.5031 46.6613 66.6531 45.2557 60.9372 46.4744C53.7587 47.9654 47.9372 53.8153 46.4462 60.9897C44.9309 68.355 47.6934 75.6675 53.5962 80.1363C55.1928 81.3266 56.3059 83.1709 56.6837 85.3078V85.3363C56.7406 85.3119 56.8219 85.3119 56.8747 85.3119H73.1247C73.1775 85.3119 73.2059 85.3119 73.2587 85.3403V85.3119C73.6366 83.2522 74.8553 81.3591 76.724 79.8966C81.3025 76.2688 83.9553 70.8494 83.9553 64.9994C83.9594 59.2591 81.4122 53.8966 76.9434 50.2647ZM75.1559 66.3522C74.0469 66.3522 73.1247 65.43 73.1247 64.321C73.1247 60.2057 69.7934 56.8744 65.6781 56.8744C64.569 56.8744 63.6469 55.9522 63.6469 54.8432C63.6469 53.7341 64.569 52.8119 65.6781 52.8119C72.0156 52.8119 77.1872 57.9835 77.1872 64.321C77.1872 65.4341 76.265 66.3522 75.1559 66.3522Z" fill="#FC573B"/>
<path d="M56.6836 85.3125H56.8745C56.8217 85.3125 56.7405 85.3125 56.6836 85.3409V85.3125Z" fill="black"/>
<path d="M73.2591 85.3125V85.3409C73.2063 85.3125 73.1778 85.3125 73.125 85.3125H73.2591Z" fill="black"/>
</svg>
