<svg width="142" height="142" viewBox="0 0 142 142" fill="none" xmlns="http://www.w3.org/2000/svg">
<path d="M71.0006 113.601C56.209 113.601 43.1331 106.027 35.5006 94.6673C35.6781 82.834 59.1673 76.3256 71.0006 76.3256C82.834 76.3256 106.323 82.834 106.501 94.6673C102.589 100.492 97.3053 105.265 91.1147 108.567C84.9241 111.868 78.0166 113.597 71.0006 113.601ZM71.0006 29.584C75.7082 29.584 80.223 31.4541 83.5518 34.7828C86.8806 38.1116 88.7506 42.6264 88.7506 47.334C88.7506 52.0416 86.8806 56.5564 83.5518 59.8851C80.223 63.2139 75.7082 65.084 71.0006 65.084C66.293 65.084 61.7783 63.2139 58.4495 59.8851C55.1207 56.5564 53.2506 52.0416 53.2506 47.334C53.2506 42.6264 55.1207 38.1116 58.4495 34.7828C61.7783 31.4541 66.293 29.584 71.0006 29.584ZM71.0006 11.834C63.2308 11.834 55.537 13.3644 48.3585 16.3378C41.1801 19.3112 34.6576 23.6694 29.1635 29.1635C18.0676 40.2594 11.834 55.3087 11.834 71.0006C11.834 86.6926 18.0676 101.742 29.1635 112.838C34.6576 118.332 41.1801 122.69 48.3585 125.664C55.537 128.637 63.2308 130.167 71.0006 130.167C86.6926 130.167 101.742 123.934 112.838 112.838C123.934 101.742 130.167 86.6926 130.167 71.0006C130.167 38.2815 103.542 11.834 71.0006 11.834Z" fill="#EAEAEA"/>
</svg>
