<svg version="1.1"
     baseProfile="full"
     xmlns="http://www.w3.org/2000/svg"
>

    <symbol id="hamburger" viewBox="0 0 18 12" fill="none">
        <path d="M0 0H18V2H0V0ZM0 5H18V7H0V5ZM0 10H18V12H0V10Z" fill="white"/>
    </symbol>

    <symbol id="user-placeholder" viewBox="0 0 24 24" fill="none">
        <path
            d="M12 20.4C9.08337 20.4 6.50504 18.9067 5.00004 16.6667C5.03504 14.3333 9.66671 13.05 12 13.05C14.3334 13.05 18.965 14.3333 19 16.6667C18.2287 17.8151 17.1869 18.7563 15.9662 19.4074C14.7455 20.0584 13.3835 20.3993 12 20.4ZM12 3.83333C12.9283 3.83333 13.8185 4.20208 14.4749 4.85846C15.1313 5.51484 15.5 6.40507 15.5 7.33333C15.5 8.26159 15.1313 9.15183 14.4749 9.80821C13.8185 10.4646 12.9283 10.8333 12 10.8333C11.0718 10.8333 10.1815 10.4646 9.52517 9.80821C8.86879 9.15183 8.50004 8.26159 8.50004 7.33333C8.50004 6.40507 8.86879 5.51484 9.52517 4.85846C10.1815 4.20208 11.0718 3.83333 12 3.83333ZM12 0.333332C10.468 0.333332 8.95087 0.635099 7.5354 1.2214C6.11994 1.80771 4.83381 2.66707 3.75046 3.75042C1.56254 5.93834 0.333374 8.90581 0.333374 12C0.333374 15.0942 1.56254 18.0617 3.75046 20.2496C4.83381 21.3329 6.11994 22.1923 7.5354 22.7786C8.95087 23.3649 10.468 23.6667 12 23.6667C15.0942 23.6667 18.0617 22.4375 20.2496 20.2496C22.4375 18.0617 23.6667 15.0942 23.6667 12C23.6667 5.54833 18.4167 0.333332 12 0.333332Z"
            fill="white"/>
    </symbol>

    <symbol id="toggle" viewBox="0 0 10 5" fill="none">
        <path d="M0 0L5 5L10 0H0Z" fill="white"/>
    </symbol>

    <symbol id="house" viewBox="0 0 20 17" fill="none">
        <path d="M8 17V11H12V17H17V9H20L10 0L0 9H3V17H8Z" fill="#181515"/>
    </symbol>

    <symbol id="toggle-2" viewBox="0 0 18 18" fill="none">
        <path d="M12.75 10.5L9 6.75L5.25 10.5L12.75 10.5Z" fill="#181515"/>
    </symbol>

    <symbol id="calendar" viewBox="0 0 18 20" fill="none">
        <path
            d="M16 18H2V7H16V18ZM13 0V2H5V0H3V2H2C0.89 2 0 2.89 0 4V18C0 18.5304 0.210714 19.0391 0.585786 19.4142C0.960859 19.7893 1.46957 20 2 20H16C16.5304 20 17.0391 19.7893 17.4142 19.4142C17.7893 19.0391 18 18.5304 18 18V4C18 3.46957 17.7893 2.96086 17.4142 2.58579C17.0391 2.21071 16.5304 2 16 2H15V0H13ZM14 11H9V16H14V11Z"
            fill="#181515"/>
    </symbol>

    <symbol id="blog" viewBox="0 0 22 17" fill="none">
        <path
            d="M12 8H19V9.5H12V8ZM12 5.5H19V7H12V5.5ZM12 10.5H19V12H12V10.5ZM20 0H2C1.46957 0 0.960859 0.210714 0.585786 0.585786C0.210714 0.960859 0 1.46957 0 2V15C0 15.5304 0.210714 16.0391 0.585786 16.4142C0.960859 16.7893 1.46957 17 2 17H20C20.5304 17 21.0391 16.7893 21.4142 16.4142C21.7893 16.0391 22 15.5304 22 15V2C22 1.46957 21.7893 0.960859 21.4142 0.585786C21.0391 0.210714 20.5304 0 20 0ZM20 15H11V2H20"
            fill="#181515"/>
    </symbol>

    <symbol id="news" viewBox="0 0 20 18" fill="none">
        <path
            d="M18 2V16H2V2H18ZM18 0H2C0.89 0 0 0.89 0 2V16C0 17.11 0.89 18 2 18H18C19.11 18 20 17.11 20 16V2C20 0.89 19.11 0 18 0ZM16 12H4V14H16V12ZM8 4H4V10H8V4ZM10 6H16V4H10V6ZM16 8H10V10H16V8Z"
            fill="#181515"/>
    </symbol>

    <symbol id="jobs" viewBox="0 0 21 20" fill="none">
        <path
            d="M13.5 8C16 8 18 10 18 12.5C18 13.38 17.75 14.21 17.31 14.9L20.39 18L19 19.39L15.88 16.32C15.19 16.75 14.37 17 13.5 17C11 17 9 15 9 12.5C9 10 11 8 13.5 8ZM13.5 10C12.837 10 12.2011 10.2634 11.7322 10.7322C11.2634 11.2011 11 11.837 11 12.5C11 13.163 11.2634 13.7989 11.7322 14.2678C12.2011 14.7366 12.837 15 13.5 15C14.163 15 14.7989 14.7366 15.2678 14.2678C15.7366 13.7989 16 13.163 16 12.5C16 11.837 15.7366 11.2011 15.2678 10.7322C14.7989 10.2634 14.163 10 13.5 10ZM8 0C9.06087 0 10.0783 0.421427 10.8284 1.17157C11.5786 1.92172 12 2.93913 12 4C12 4.91 11.69 5.75 11.18 6.43C10.32 6.75 9.55 7.26 8.91 7.9L8 8C6.93913 8 5.92172 7.57857 5.17157 6.82843C4.42143 6.07828 4 5.06087 4 4C4 2.93913 4.42143 1.92172 5.17157 1.17157C5.92172 0.421427 6.93913 0 8 0ZM0 16V14C0 11.88 3.31 10.14 7.5 10C7.18 10.78 7 11.62 7 12.5C7 13.79 7.38 15 8 16H0Z"
            fill="#181515"/>
    </symbol>

    <symbol id="purchases" viewBox="0 0 22 20" fill="none">
        <path
            d="M4.5 20C3.72 20 3.04 19.55 2.71 18.9L0.1 9.44L0 9C0 8.73478 0.105357 8.48043 0.292893 8.29289C0.48043 8.10535 0.734784 8 1 8H5.58L10.18 1.43C10.2722 1.29587 10.3958 1.18636 10.5401 1.11102C10.6844 1.03568 10.8449 0.996804 11.0076 0.997791C11.1704 0.998777 11.3304 1.03959 11.4738 1.11668C11.6171 1.19376 11.7394 1.30476 11.83 1.44L16.42 8H21C21.2652 8 21.5196 8.10535 21.7071 8.29289C21.8946 8.48043 22 8.73478 22 9L21.96 9.29L19.29 18.9C18.96 19.55 18.28 20 17.5 20H4.5ZM11 3.74L8 8H14L11 3.74ZM11 12C10.4696 12 9.96086 12.2107 9.58579 12.5858C9.21071 12.9609 9 13.4696 9 14C9 14.5304 9.21071 15.0391 9.58579 15.4142C9.96086 15.7893 10.4696 16 11 16C11.5304 16 12.0391 15.7893 12.4142 15.4142C12.7893 15.0391 13 14.5304 13 14C13 13.4696 12.7893 12.9609 12.4142 12.5858C12.0391 12.2107 11.5304 12 11 12Z"
            fill="#181515"/>
    </symbol>

    <symbol id="chevron-right" viewBox="0 0 16 16" fill="none">
        <path d="M0 6.99996V8.99996H12L6.5 14.5L7.92 15.92L15.84 7.99996L7.92 0.0799561L6.5 1.49996L12 6.99996H0Z"
              fill="white"/>
    </symbol>

    <symbol id="calendar-2" viewBox="0 0 18 20" fill="none">
        <path
            d="M6 9H4V11H6V9ZM10 9H8V11H10V9ZM14 9H12V11H14V9ZM16 2H15V0H13V2H5V0H3V2H2C1.46957 2 0.960859 2.21071 0.585786 2.58579C0.210714 2.96086 0 3.46957 0 4V18C0 18.5304 0.210714 19.0391 0.585786 19.4142C0.960859 19.7893 1.46957 20 2 20H16C16.5304 20 17.0391 19.7893 17.4142 19.4142C17.7893 19.0391 18 18.5304 18 18V4C18 3.46957 17.7893 2.96086 17.4142 2.58579C17.0391 2.21071 16.5304 2 16 2ZM16 18H2V7H16V18Z"
            fill="white"/>
    </symbol>

    <symbol id="chat" viewBox="0 0 18 18" fill="none">
        <path
            d="M6.50008 17.3333C6.27907 17.3333 6.06711 17.2455 5.91083 17.0892C5.75455 16.933 5.66675 16.721 5.66675 16.5V14H2.33341C1.89139 14 1.46746 13.8244 1.1549 13.5118C0.842343 13.1993 0.666748 12.7754 0.666748 12.3333V2.33332C0.666748 1.8913 0.842343 1.46737 1.1549 1.15481C1.46746 0.842251 1.89139 0.666656 2.33341 0.666656H15.6667C16.1088 0.666656 16.5327 0.842251 16.8453 1.15481C17.1578 1.46737 17.3334 1.8913 17.3334 2.33332V12.3333C17.3334 12.7754 17.1578 13.1993 16.8453 13.5118C16.5327 13.8244 16.1088 14 15.6667 14H10.5834L7.50008 17.0917C7.33342 17.25 7.12508 17.3333 6.91675 17.3333H6.50008ZM13.1667 8.16666V6.49999H11.5001V8.16666H13.1667ZM9.83342 8.16666V6.49999H8.16675V8.16666H9.83342ZM6.50008 8.16666V6.49999H4.83342V8.16666H6.50008Z"
            fill="#181515"/>
    </symbol>

    <symbol id="eye" viewBox="0 0 20 14" fill="none">
        <path
            d="M9.99992 4.5C9.33688 4.5 8.70099 4.76339 8.23215 5.23223C7.76331 5.70107 7.49992 6.33696 7.49992 7C7.49992 7.66304 7.76331 8.29893 8.23215 8.76777C8.70099 9.23661 9.33688 9.5 9.99992 9.5C10.663 9.5 11.2988 9.23661 11.7677 8.76777C12.2365 8.29893 12.4999 7.66304 12.4999 7C12.4999 6.33696 12.2365 5.70107 11.7677 5.23223C11.2988 4.76339 10.663 4.5 9.99992 4.5ZM9.99992 11.1667C8.89485 11.1667 7.83504 10.7277 7.05364 9.94628C6.27224 9.16488 5.83325 8.10507 5.83325 7C5.83325 5.89493 6.27224 4.83512 7.05364 4.05372C7.83504 3.27232 8.89485 2.83333 9.99992 2.83333C11.105 2.83333 12.1648 3.27232 12.9462 4.05372C13.7276 4.83512 14.1666 5.89493 14.1666 7C14.1666 8.10507 13.7276 9.16488 12.9462 9.94628C12.1648 10.7277 11.105 11.1667 9.99992 11.1667ZM9.99992 0.75C5.83325 0.75 2.27492 3.34167 0.833252 7C2.27492 10.6583 5.83325 13.25 9.99992 13.25C14.1666 13.25 17.7249 10.6583 19.1666 7C17.7249 3.34167 14.1666 0.75 9.99992 0.75Z"
            fill="#181515"/>
    </symbol>

    <symbol id="red-plus" viewBox="0 0 18 18" fill="none">
        <path
            d="M17.1667 10.1667H10.1667V17.1667H7.83337V10.1667H0.833374V7.83337H7.83337V0.833374H10.1667V7.83337H17.1667V10.1667Z"
            fill="#F33C3C"/>
    </symbol>

    <symbol id="search" viewBox="0 0 18 18" fill="none">
        <path
            d="M6.5 0C8.22391 0 9.87721 0.684819 11.0962 1.90381C12.3152 3.12279 13 4.77609 13 6.5C13 8.11 12.41 9.59 11.44 10.73L11.71 11H12.5L17.5 16L16 17.5L11 12.5V11.71L10.73 11.44C9.55055 12.4468 8.05071 12.9999 6.5 13C4.77609 13 3.12279 12.3152 1.90381 11.0962C0.684819 9.87721 0 8.22391 0 6.5C0 4.77609 0.684819 3.12279 1.90381 1.90381C3.12279 0.684819 4.77609 0 6.5 0ZM6.5 2C4 2 2 4 2 6.5C2 9 4 11 6.5 11C9 11 11 9 11 6.5C11 4 9 2 6.5 2Z"
            fill="black"/>
    </symbol>

    <symbol id="apartment" viewBox="0 0 17 19" fill="none">
        <path
            d="M10.19 18C9.12 16.43 8 14.36 8 12.5C8 10.67 8.96 9 10.4 8H10V6H12V7.23C12.5 7.09 13 7 13.5 7C13.67 7 13.84 7 14 7.03V0H0V18H6V14.5H8V18H10.19ZM10 2H12V4H10V2ZM4 16H2V14H4V16ZM4 12H2V10H4V12ZM4 8H2V6H4V8ZM4 4H2V2H4V4ZM6 2H8V4H6V2ZM6 6H8V8H6V6ZM6 12V10H8V12H6ZM13.5 9C11.6 9 10 10.61 10 12.5C10 15.11 13.5 19 13.5 19C13.5 19 17 15.11 17 12.5C17 10.61 15.4 9 13.5 9ZM13.5 13.81C12.8 13.81 12.3 13.21 12.3 12.61C12.3 11.91 12.9 11.41 13.5 11.41C14.1 11.41 14.7 12 14.7 12.61C14.8 13.21 14.2 13.81 13.5 13.81Z"
            fill="black"/>
    </symbol>

    <symbol id="doc-search" viewBox="0 0 21 22" fill="none">
        <path
            d="M7.18 16H4V14H7C7.08 13.32 7.23 12.64 7.5 12H4V10H8.82C8.85 9.97 8.87 9.94 8.9 9.9C10.1224 8.68426 11.776 8.00126 13.5 8H4V6H14V8H13.5C15.12 8 16.74 8.61 18 9.82V4C18 3.46957 17.7893 2.96086 17.4142 2.58579C17.0391 2.21071 16.5304 2 16 2H11.82C11.4 0.84 10.3 0 9 0C7.7 0 6.6 0.84 6.18 2H2C0.9 2 0 2.9 0 4V18C0 18.5304 0.210714 19.0391 0.585786 19.4142C0.960859 19.7893 1.46957 20 2 20H10.06C9.65 19.74 9.26 19.45 8.9 19.1C8 18.21 7.45 17.13 7.18 16ZM9 2C9.55 2 10 2.45 10 3C10 3.55 9.55 4 9 4C8.45 4 8 3.55 8 3C8 2.45 8.45 2 9 2ZM17.31 16.9C17.75 16.21 18 15.38 18 14.5C18 12 16 10 13.5 10C11 10 9 12 9 14.5C9 17 11 19 13.5 19C14.37 19 15.19 18.75 15.88 18.32L19 21.39L20.39 20L17.31 16.9ZM13.5 17C12.837 17 12.2011 16.7366 11.7322 16.2678C11.2634 15.7989 11 15.163 11 14.5C11 13.837 11.2634 13.2011 11.7322 12.7322C12.2011 12.2634 12.837 12 13.5 12C14.163 12 14.7989 12.2634 15.2678 12.7322C15.7366 13.2011 16 13.837 16 14.5C16 15.163 15.7366 15.7989 15.2678 16.2678C14.7989 16.7366 14.163 17 13.5 17Z"
            fill="black"/>
    </symbol>

    <symbol id="play" viewBox="0 0 20 20" fill="none">
        <path
            d="M2 4H0V18C0 18.5304 0.210714 19.0391 0.585786 19.4142C0.960859 19.7893 1.46957 20 2 20H16V18H2V4ZM18 0H6C5.46957 0 4.96086 0.210714 4.58579 0.585786C4.21071 0.960859 4 1.46957 4 2V14C4 14.5304 4.21071 15.0391 4.58579 15.4142C4.96086 15.7893 5.46957 16 6 16H18C18.5304 16 19.0391 15.7893 19.4142 15.4142C19.7893 15.0391 20 14.5304 20 14V2C20 1.46957 19.7893 0.960859 19.4142 0.585786C19.0391 0.210714 18.5304 0 18 0ZM10 12.5V3.5L16 8L10 12.5Z"
            fill="black"/>
    </symbol>

    <symbol id="calendar-grey" viewBox="0 0 16 18" fill="none">
        <path
            d="M5.5 8.33331H3.83333V9.99998H5.5V8.33331ZM8.83333 8.33331H7.16667V9.99998H8.83333V8.33331ZM12.1667 8.33331H10.5V9.99998H12.1667V8.33331ZM13.8333 2.49998H13V0.833313H11.3333V2.49998H4.66667V0.833313H3V2.49998H2.16667C1.72464 2.49998 1.30072 2.67557 0.988155 2.98813C0.675595 3.3007 0.5 3.72462 0.5 4.16665V15.8333C0.5 16.2753 0.675595 16.6993 0.988155 17.0118C1.30072 17.3244 1.72464 17.5 2.16667 17.5H13.8333C14.2754 17.5 14.6993 17.3244 15.0118 17.0118C15.3244 16.6993 15.5 16.2753 15.5 15.8333V4.16665C15.5 3.72462 15.3244 3.3007 15.0118 2.98813C14.6993 2.67557 14.2754 2.49998 13.8333 2.49998ZM13.8333 15.8333H2.16667V6.66665H13.8333V15.8333Z"
            fill="#A3A1A1"/>
    </symbol>

    <symbol id="lamp" viewBox="0 0 130 130" fill="none">
        <path
            d="M105.625 130H24.375C10.9119 130 0 119.088 0 105.625V24.375C0 10.9119 10.9119 0 24.375 0H105.625C119.088 0 130 10.9119 130 24.375V105.625C130 119.088 119.088 130 105.625 130Z"
            fill="#FFE6E2"/>
        <path
            d="M65 41.86C63.8788 41.86 62.9688 40.95 62.9688 39.8288V34.5313C62.9688 33.41 63.8788 32.5 65 32.5C66.1212 32.5 67.0312 33.41 67.0312 34.5313V39.8288C67.0312 40.95 66.1212 41.86 65 41.86Z"
            fill="#FD907E"/>
        <path
            d="M82.7984 49.2325C82.2784 49.2325 81.7584 49.0334 81.3603 48.6394C80.5681 47.8472 80.5681 46.5594 81.3603 45.7672L85.11 42.0175C85.9021 41.2253 87.19 41.2253 87.9821 42.0175C88.7743 42.8097 88.7743 44.0975 87.9821 44.8897L84.2324 48.6394C83.8384 49.0334 83.3184 49.2325 82.7984 49.2325Z"
            fill="#FD907E"/>
        <path
            d="M95.4694 67.0312H90.1719C89.0506 67.0312 88.1406 66.1212 88.1406 65C88.1406 63.8788 89.0506 62.9688 90.1719 62.9688H95.4694C96.5906 62.9688 97.5006 63.8788 97.5006 65C97.5006 66.1212 96.5906 67.0312 95.4694 67.0312Z"
            fill="#FD907E"/>
        <path
            d="M86.5432 88.5753C86.0232 88.5753 85.5032 88.3762 85.1051 87.9821L81.3554 84.2324C80.5632 83.4403 80.5632 82.1524 81.3554 81.3603C82.1476 80.5681 83.4354 80.5681 84.2276 81.3603L87.9773 85.11C88.7695 85.9021 88.7695 87.1899 87.9773 87.9821C87.5832 88.3803 87.0632 88.5753 86.5432 88.5753Z"
            fill="#FD907E"/>
        <path
            d="M43.4571 88.5753C42.9371 88.5753 42.4171 88.3762 42.0189 87.9821C41.2268 87.1899 41.2268 85.9021 42.0189 85.11L45.7686 81.3603C46.5608 80.5681 47.8486 80.5681 48.6408 81.3603C49.433 82.1524 49.433 83.4403 48.6408 84.2324L44.8911 87.9821C44.493 88.3803 43.9771 88.5753 43.4571 88.5753Z"
            fill="#FD907E"/>
        <path
            d="M39.8288 67.0312H34.5313C33.41 67.0312 32.5 66.1212 32.5 65C32.5 63.8788 33.41 62.9688 34.5313 62.9688H39.8288C40.95 62.9688 41.86 63.8788 41.86 65C41.86 66.1212 40.95 67.0312 39.8288 67.0312Z"
            fill="#FD907E"/>
        <path
            d="M47.2019 49.2325C46.6819 49.2325 46.1619 49.0334 45.7637 48.6394L42.0141 44.8897C41.2219 44.0975 41.2219 42.8097 42.0141 42.0175C42.8062 41.2253 44.0941 41.2253 44.8862 42.0175L48.6359 45.7672C49.4281 46.5594 49.4281 47.8472 48.6359 48.6394C48.2419 49.0334 47.7219 49.2325 47.2019 49.2325Z"
            fill="#FD907E"/>
        <path
            d="M73.125 89.375V92.7591C73.125 95.3591 70.9841 97.5 68.3841 97.5H61.6119C59.3409 97.5 56.875 95.7653 56.875 91.975V89.375H73.125Z"
            fill="#FC573B"/>
        <path
            d="M76.9434 50.2647C72.5031 46.6613 66.6531 45.2557 60.9372 46.4744C53.7587 47.9654 47.9372 53.8153 46.4462 60.9897C44.9309 68.355 47.6934 75.6675 53.5962 80.1363C55.1928 81.3266 56.3059 83.1709 56.6837 85.3078V85.3363C56.7406 85.3119 56.8219 85.3119 56.8747 85.3119H73.1247C73.1775 85.3119 73.2059 85.3119 73.2587 85.3403V85.3119C73.6366 83.2522 74.8553 81.3591 76.724 79.8966C81.3025 76.2688 83.9553 70.8494 83.9553 64.9994C83.9594 59.2591 81.4122 53.8966 76.9434 50.2647ZM75.1559 66.3522C74.0469 66.3522 73.1247 65.43 73.1247 64.321C73.1247 60.2057 69.7934 56.8744 65.6781 56.8744C64.569 56.8744 63.6469 55.9522 63.6469 54.8432C63.6469 53.7341 64.569 52.8119 65.6781 52.8119C72.0156 52.8119 77.1872 57.9835 77.1872 64.321C77.1872 65.4341 76.265 66.3522 75.1559 66.3522Z"
            fill="#FC573B"/>
        <path d="M56.6836 85.3125H56.8745C56.8217 85.3125 56.7405 85.3125 56.6836 85.3409V85.3125Z" fill="black"/>
        <path d="M73.2591 85.3125V85.3409C73.2063 85.3125 73.1778 85.3125 73.125 85.3125H73.2591Z" fill="black"/>
    </symbol>

    <symbol id="group" viewBox="0 0 130 130" fill="none">
        <path
            d="M105.625 130H24.375C10.9119 130 0 119.088 0 105.625V24.375C0 10.9119 10.9119 0 24.375 0H105.625C119.088 0 130 10.9119 130 24.375V105.625C130 119.088 119.088 130 105.625 130Z"
            fill="#F5E6FE"/>
        <path
            d="M64.9992 46.0444C68.7394 46.0444 71.7714 43.0124 71.7714 39.2722C71.7714 35.532 68.7394 32.5 64.9992 32.5C61.2591 32.5 58.2271 35.532 58.2271 39.2722C58.2271 43.0124 61.2591 46.0444 64.9992 46.0444Z"
            fill="#BE63F9"/>
        <path
            d="M83.9597 83.9589C87.6999 83.9589 90.7319 80.9269 90.7319 77.1867C90.7319 73.4466 87.6999 70.4146 83.9597 70.4146C80.2195 70.4146 77.1875 73.4466 77.1875 77.1867C77.1875 80.9269 80.2195 83.9589 83.9597 83.9589Z"
            fill="#BE63F9"/>
        <path
            d="M46.0403 83.9589C49.7804 83.9589 52.8124 80.9269 52.8124 77.1867C52.8124 73.4466 49.7804 70.4146 46.0403 70.4146C42.3001 70.4146 39.2681 73.4466 39.2681 77.1867C39.2681 80.9269 42.3001 83.9589 46.0403 83.9589Z"
            fill="#BE63F9"/>
        <path
            d="M76.509 59.5855H53.4868C52.3656 59.5855 51.4556 58.6755 51.4556 57.5543V56.2014C51.4556 52.0943 54.7949 48.7549 58.9021 48.7549H71.0896C75.1968 48.7549 78.5362 52.0943 78.5362 56.2014V57.5543C78.5402 58.6755 77.6302 59.5855 76.509 59.5855Z"
            fill="#BE63F9"/>
        <path
            d="M95.468 97.5015H72.4458C71.3245 97.5015 70.4146 96.5915 70.4146 95.4703V94.1175C70.4146 90.0103 73.7539 86.6709 77.8611 86.6709H90.0486C94.1558 86.6709 97.4951 90.0103 97.4951 94.1175V95.4703C97.4992 96.5915 96.5892 97.5015 95.468 97.5015Z"
            fill="#BE63F9"/>
        <path
            d="M57.5534 97.5015H34.5312C33.41 97.5015 32.5 96.5915 32.5 95.4703V94.1175C32.5 90.0103 35.8394 86.6709 39.9466 86.6709H52.134C56.2412 86.6709 59.5806 90.0103 59.5806 94.1175V95.4703C59.5847 96.5915 58.6747 97.5015 57.5534 97.5015Z"
            fill="#BE63F9"/>
        <path
            d="M39.9458 67.0629C38.8246 67.0629 37.9146 66.1529 37.9146 65.0316C37.9146 54.5341 44.0692 44.8898 53.5877 40.4616C54.6074 39.9904 55.8139 40.4291 56.2852 41.4488C56.7564 42.4645 56.3177 43.6751 55.298 44.1463C47.2014 47.9123 41.973 56.1104 41.973 65.0316C41.977 66.1529 41.0671 67.0629 39.9458 67.0629Z"
            fill="#D9A4FC"/>
        <path
            d="M90.0529 67.0642C88.9317 67.0642 88.0217 66.1542 88.0217 65.033C88.0217 56.1076 82.7933 47.9095 74.6967 44.1476C73.6811 43.6723 73.2383 42.4658 73.7095 41.4501C74.1848 40.4345 75.3873 39.9917 76.407 40.4629C85.9295 44.8911 92.0801 54.5355 92.0801 65.033C92.0842 66.1542 91.1742 67.0642 90.0529 67.0642Z"
            fill="#D9A4FC"/>
        <path
            d="M64.9994 92.1173C64.0406 92.1173 63.0981 92.0686 62.1678 91.9711C61.0547 91.8533 60.2422 90.8539 60.36 89.7408C60.4778 88.6277 61.4609 87.8314 62.5903 87.933C64.2194 88.1036 65.9297 88.0955 67.5669 87.9167C68.6719 87.7908 69.6834 88.5992 69.8094 89.7124C69.9312 90.8295 69.1269 91.8289 68.0137 91.9548C67.0225 92.0605 66.0191 92.1173 64.9994 92.1173Z"
            fill="#D9A4FC"/>
    </symbol>

    <symbol id="technology" viewBox="0 0 130 130" fill="none">
        <path
            d="M105.625 130H24.375C10.9119 130 0 119.088 0 105.625V24.375C0 10.9119 10.9119 0 24.375 0H105.625C119.088 0 130 10.9119 130 24.375V105.625C130 119.088 119.088 130 105.625 130Z"
            fill="#F5E6FE"/>
        <path
            d="M49.4691 80.5309C39.2844 77.5897 32.5 71.8047 32.5 65C32.5 82.9197 47.0803 97.5 65 97.5C58.1953 97.5 52.4103 90.7156 49.4691 80.5309Z"
            fill="#D9A4FC"/>
        <path
            d="M81.8799 74.3755C88.2499 71.9705 92.0849 68.3793 92.0849 64.9993C92.0849 61.6233 88.2499 58.0321 81.8799 55.623C82.3471 58.5846 82.6071 61.7208 82.6071 64.9993C82.603 68.2736 82.3471 71.4139 81.8799 74.3755Z"
            fill="#BE63F9"/>
        <path
            d="M76.0703 76.0703C76.7731 72.7553 77.1875 69.0341 77.1875 65C77.1875 60.9659 76.7731 57.2447 76.0703 53.9297C72.7553 53.2228 69.0341 52.8125 65 52.8125C60.9659 52.8125 57.2447 53.2228 53.9297 53.9297C53.2269 57.2447 52.8125 60.9659 52.8125 65C52.8125 69.0341 53.2269 72.7553 53.9297 76.0703C57.2447 76.7772 60.9659 77.1875 65 77.1875C69.0341 77.1875 72.7553 76.7772 76.0703 76.0703Z"
            fill="#BE63F9"/>
        <path
            d="M80.5309 49.4691C90.7156 52.4103 97.5 58.1953 97.5 65C97.5 47.0803 82.9197 32.5 65 32.5C71.8047 32.5 77.5897 39.2844 80.5309 49.4691Z"
            fill="#D9A4FC"/>
        <path
            d="M49.4691 49.4691C52.4103 39.2844 58.1953 32.5 65 32.5C47.0803 32.5 32.5 47.0803 32.5 65C32.5 58.1953 39.2844 52.4103 49.4691 49.4691Z"
            fill="#D9A4FC"/>
        <path
            d="M80.5309 80.5309C77.5897 90.7156 71.8047 97.5 65 97.5C82.9197 97.5 97.5 82.9197 97.5 65C97.5 71.8047 90.7156 77.5897 80.5309 80.5309Z"
            fill="#D9A4FC"/>
        <path
            d="M64.9998 82.6027C61.7254 82.6027 58.5851 82.3427 55.6235 81.8755C58.0285 88.2455 61.6198 92.0805 64.9998 92.0805C68.3798 92.0805 71.971 88.2455 74.376 81.8755C71.4144 82.3467 68.2741 82.6027 64.9998 82.6027Z"
            fill="#BE63F9"/>
        <path
            d="M74.376 48.1196C71.971 41.7536 68.3757 37.9146 64.9998 37.9146C61.6238 37.9146 58.0285 41.7496 55.6235 48.1196C58.5851 47.6524 61.7213 47.3924 64.9998 47.3924C68.2741 47.3964 71.4144 47.6524 74.376 48.1196Z"
            fill="#BE63F9"/>
        <path
            d="M48.1196 55.623C41.7496 58.0321 37.9146 61.6233 37.9146 64.9993C37.9146 68.3752 41.7496 71.9664 48.1196 74.3755C47.6524 71.4139 47.3924 68.2777 47.3924 64.9993C47.3964 61.7249 47.6524 58.5846 48.1196 55.623Z"
            fill="#BE63F9"/>
    </symbol>

    <symbol id="star-target" viewBox="0 0 130 130" fill="none">
        <path
            d="M105.625 130H24.375C10.9119 130 0 119.088 0 105.625V24.375C0 10.9119 10.9119 0 24.375 0H105.625C119.088 0 130 10.9119 130 24.375V105.625C130 119.088 119.088 130 105.625 130Z"
            fill="#FFE6E2"/>
        <path
            d="M57.9354 78.5384C57.5251 78.5384 57.1189 78.4166 56.7736 78.1728C56.1358 77.7259 55.8067 76.9581 55.9326 76.1903L57.0986 68.8778L52.0408 63.7347C51.5086 63.1903 51.3217 62.3981 51.5614 61.675C51.8011 60.9519 52.4226 60.4238 53.1742 60.306L60.0561 59.2335L63.1314 52.636C63.4604 51.921 64.2079 51.4822 64.9717 51.4619C65.7558 51.4619 66.4708 51.9129 66.8079 52.6238L69.9279 59.201L76.8139 60.2288C77.5695 60.3425 78.1951 60.8666 78.4389 61.5856C78.6867 62.3047 78.5039 63.105 77.9717 63.6494L72.9505 68.825L74.1692 76.1294C74.2951 76.8972 73.9742 77.6691 73.3405 78.12C72.6986 78.575 71.8658 78.6197 71.1873 78.2459L65.0448 74.8822L58.9267 78.2906C58.6139 78.4572 58.2726 78.5384 57.9354 78.5384Z"
            fill="#FC573B"/>
        <path
            d="M65.0008 92.7598C49.6933 92.7598 37.2417 80.3083 37.2417 65.0008C37.2417 49.6933 49.6933 37.2417 65.0008 37.2417C80.3083 37.2417 92.7598 49.6933 92.7598 65.0008C92.7598 80.3083 80.3083 92.7598 65.0008 92.7598ZM65.0008 42.657C52.6792 42.657 42.657 52.6792 42.657 65.0008C42.657 77.3223 52.6792 87.3445 65.0008 87.3445C77.3223 87.3445 87.3445 77.3223 87.3445 65.0008C87.3445 52.6792 77.3223 42.657 65.0008 42.657Z"
            fill="#FD907E"/>
        <path
            d="M64.9992 47.3972C63.5042 47.3972 62.2896 46.1825 62.2896 44.6875V35.2097C62.2896 33.7106 63.5042 32.5 64.9992 32.5C66.4942 32.5 67.7089 33.7147 67.7089 35.2097V44.6875C67.7089 46.1825 66.4942 47.3972 64.9992 47.3972Z"
            fill="#FD907E"/>
        <path
            d="M94.7896 67.7089H85.3117C83.8167 67.7089 82.6021 66.4942 82.6021 64.9992C82.6021 63.5042 83.8167 62.2896 85.3117 62.2896H94.7896C96.2886 62.2896 97.4992 63.5042 97.4992 64.9992C97.4992 66.4942 96.2886 67.7089 94.7896 67.7089Z"
            fill="#FD907E"/>
        <path
            d="M64.9992 97.4992C63.5042 97.4992 62.2896 96.2846 62.2896 94.7896V85.3117C62.2896 83.8167 63.5042 82.6021 64.9992 82.6021C66.4942 82.6021 67.7089 83.8167 67.7089 85.3117V94.7896C67.7089 96.2886 66.4942 97.4992 64.9992 97.4992Z"
            fill="#FD907E"/>
        <path
            d="M44.6875 67.7089H35.2097C33.7106 67.7089 32.5 66.4942 32.5 64.9992C32.5 63.5042 33.7147 62.2896 35.2097 62.2896H44.6875C46.1825 62.2896 47.3972 63.5042 47.3972 64.9992C47.3972 66.4942 46.1825 67.7089 44.6875 67.7089Z"
            fill="#FD907E"/>
    </symbol>

    <symbol id="artificial-intelligence" viewBox="0 0 40 40" fill="none">
        <path
            d="M32.5 40H7.5C3.3575 40 0 36.6425 0 32.5V7.5C0 3.3575 3.3575 0 7.5 0H32.5C36.6425 0 40 3.3575 40 7.5V32.5C40 36.6425 36.6425 40 32.5 40Z"
            fill="#FDE2E2"/>
        <path
            d="M25.1425 21.6414C25.0587 21.6714 24.9712 21.6739 24.8925 21.6526L18.6425 19.9864C18.46 19.9376 18.3337 19.7726 18.3337 19.5839V10.4164C18.3337 10.3251 18.3637 10.2414 18.415 10.1714C15.0388 10.9026 12.5 13.9089 12.5 17.5026C12.5 18.0189 12.3537 18.5239 12.0775 18.9626L10.13 22.0539C10.0438 22.1939 10 22.3426 10 22.5001C10 22.9676 10.3662 23.3339 10.8337 23.3339H12.5V25.8339C12.5 26.7526 13.2475 27.5001 14.1662 27.5001C14.3487 27.5001 14.5187 27.4726 14.6537 27.4239L16.6662 26.8126V29.5839C16.6662 29.8139 16.8525 30.0002 17.0825 30.0002H24.5825C24.8137 30.0002 25 29.8139 25 29.5839V25.3951C25 24.1064 25.3925 22.8664 26.1362 21.8089C26.2875 21.5926 26.41 21.3626 26.5375 21.1351L25.1425 21.6414Z"
            fill="#F33C3C"/>
        <path d="M25 10L30 12.0837L25 14.1663L20 12.0837L25 10Z" fill="#F88F8F"/>
        <path d="M24.1663 15.1737L20 13.4375V17.9163C20 18.0913 20.11 18.2475 20.2737 18.3075L24.1663 19.7225V15.1737Z"
              fill="#F88F8F"/>
        <path
            d="M25.834 15.1738V19.7238L29.7265 18.3088C29.8902 18.2488 30.0002 18.0925 30.0002 17.9163V13.4375L25.834 15.1738Z"
            fill="#F88F8F"/>
    </symbol>

    <symbol id="online-education" viewBox="0 0 40 40" fill="none">
        <path
            d="M32.5 40H7.5C3.3575 40 0 36.6425 0 32.5V7.5C0 3.3575 3.3575 0 7.5 0H32.5C36.6425 0 40 3.3575 40 7.5V32.5C40 36.6425 36.6425 40 32.5 40Z"
            fill="#FDE2E2"/>
        <path
            d="M27.0842 17.5H21.668C20.2892 17.5 19.168 16.3787 19.168 15C19.168 13.785 20.0392 12.77 21.1892 12.5462C21.6205 11.0637 23.0017 10 24.5842 10C25.833 10 26.9892 10.665 27.6205 11.7188C28.9805 11.9675 30.0005 13.1625 30.0005 14.5837C30.0005 16.1912 28.6917 17.5 27.0842 17.5Z"
            fill="#F88F8F"/>
        <path
            d="M25.8337 24.1665V19.1665H24.1675V24.1665H13.3337V16.6665H17.8425C17.625 16.159 17.5 15.5915 17.5 15.0002C17.5 14.409 17.625 13.8502 17.85 13.334H10.8337C10.375 13.334 10 13.709 10 14.1665V15.8327C10 16.2915 10.375 16.6665 10.8337 16.6665H11.6675V24.1665C11.2075 24.1665 10.8337 24.5402 10.8337 25.0002C10.8337 25.4602 11.2075 25.834 11.6675 25.834H17.3713L15.1762 28.6552C14.8937 29.0177 14.9588 29.5415 15.3225 29.8252C15.6838 30.1065 16.2088 30.0415 16.4925 29.679L18.75 26.774L21.0087 29.6777C21.2912 30.0402 21.815 30.1065 22.1788 29.824C22.5425 29.5415 22.6075 29.0177 22.325 28.654L20.13 25.8327H25.8337C26.2937 25.8327 26.6675 25.459 26.6675 24.999C26.6675 24.539 26.2937 24.1665 25.8337 24.1665Z"
            fill="#F33C3C"/>
    </symbol>

    <symbol id="controls" viewBox="0 0 40 40" fill="none">
        <path
            d="M32.5 40H7.5C3.3575 40 0 36.6425 0 32.5V7.5C0 3.3575 3.3575 0 7.5 0H32.5C36.6425 0 40 3.3575 40 7.5V32.5C40 36.6425 36.6425 40 32.5 40Z"
            fill="#FDE2E2"/>
        <path
            d="M25.4163 21.666H14.5825C12.745 21.666 11.25 23.1623 11.25 24.9998V27.0835C11.25 27.5435 11.6225 27.9173 12.0837 27.9173C12.5437 27.9173 12.9175 27.5435 12.9175 27.0835V24.9998C12.9175 24.081 13.665 23.3335 14.5837 23.3335H19.1675V27.0835C19.1675 27.5435 19.54 27.9173 20.0012 27.9173C20.4612 27.9173 20.835 27.5435 20.835 27.0835V23.3335H25.4187C26.3375 23.3335 27.085 24.081 27.085 24.9998V27.096C27.085 27.556 27.4575 27.9298 27.9187 27.9298C28.3787 27.9298 28.7525 27.556 28.7525 27.096V24.9998C28.75 23.1623 27.255 21.666 25.4163 21.666Z"
            fill="#F88F8F"/>
        <path
            d="M24.9998 20H14.9998C14.5398 20 14.166 19.6263 14.166 19.1663V15.8325C14.166 12.6163 16.7835 10 19.9998 10C23.216 10 25.8335 12.6163 25.8335 15.8337V19.1675C25.8335 19.6262 25.461 20 24.9998 20ZM15.8335 18.3337H24.1673V15.8337C24.1673 13.5362 22.2985 11.6675 20.001 11.6675C17.7035 11.6675 15.8348 13.5362 15.8348 15.8337V18.3337H15.8335Z"
            fill="#F33C3C"/>
        <path
            d="M13.5413 29.9998H10.625C10.28 29.9998 10 29.7198 10 29.3748V28.7498C10 27.601 10.9337 26.666 12.0837 26.666C13.2325 26.666 14.1675 27.601 14.1675 28.7498V29.3748C14.1662 29.7198 13.8863 29.9998 13.5413 29.9998Z"
            fill="#F88F8F"/>
        <path
            d="M29.3752 29.9998H26.459C26.114 29.9998 25.834 29.7198 25.834 29.3748V28.7498C25.834 27.601 26.7677 26.666 27.9177 26.666C29.0677 26.666 30.0002 27.601 30.0002 28.7498V29.3748C30.0002 29.7198 29.7202 29.9998 29.3752 29.9998Z"
            fill="#F88F8F"/>
        <path
            d="M21.4592 29.9998H18.543C18.198 29.9998 17.918 29.7198 17.918 29.3748V28.7498C17.918 27.601 18.8517 26.666 20.0017 26.666C21.1517 26.666 22.0855 27.601 22.0855 28.7498V29.3748C22.0842 29.7198 21.8042 29.9998 21.4592 29.9998Z"
            fill="#F88F8F"/>
        <path
            d="M17.916 19.9997C17.571 19.9997 17.291 19.7197 17.291 19.3747V16.3984C17.291 16.0534 17.571 15.7734 17.916 15.7734C18.261 15.7734 18.541 16.0534 18.541 16.3984V19.3747C18.541 19.7197 18.261 19.9997 17.916 19.9997Z"
            fill="#F33C3C"/>
        <path
            d="M17.916 16.666C17.2273 16.666 16.666 16.1048 16.666 15.416C16.666 14.7273 17.2273 14.166 17.916 14.166C18.6048 14.166 19.166 14.7273 19.166 15.416C19.166 16.106 18.606 16.666 17.916 16.666Z"
            fill="#F33C3C"/>
        <path
            d="M22.084 19.9997C21.739 19.9997 21.459 19.7197 21.459 19.3747V16.3984C21.459 16.0534 21.739 15.7734 22.084 15.7734C22.429 15.7734 22.709 16.0534 22.709 16.3984V19.3747C22.709 19.7197 22.429 19.9997 22.084 19.9997Z"
            fill="#F33C3C"/>
        <path
            d="M22.084 16.666C21.3952 16.666 20.834 16.1048 20.834 15.416C20.834 14.7273 21.3952 14.166 22.084 14.166C22.7727 14.166 23.334 14.7273 23.334 15.416C23.334 16.106 22.7727 16.666 22.084 16.666Z"
            fill="#F33C3C"/>
    </symbol>

    <symbol id="chip" viewBox="0 0 40 40" fill="none">
        <path
            d="M32.5 40H7.5C3.3575 40 0 36.6425 0 32.5V7.5C0 3.3575 3.3575 0 7.5 0H32.5C36.6425 0 40 3.3575 40 7.5V32.5C40 36.6425 36.6425 40 32.5 40Z"
            fill="#FDE2E2"/>
        <path
            d="M21.15 20.625H20.7337H18.75V21.6663H21.15C21.435 21.6663 21.6663 21.4338 21.6663 21.15C21.6663 20.8575 21.435 20.625 21.15 20.625Z"
            fill="#F88F8F"/>
        <path
            d="M21.25 18.859C21.25 18.5665 21.0175 18.334 20.7337 18.334H18.75V19.3752H20.7337C21.0175 19.3752 21.25 19.1427 21.25 18.859Z"
            fill="#F88F8F"/>
        <path
            d="M29.1663 20.8337C29.6275 20.8337 30 20.46 30 20C30 19.54 29.6275 19.1663 29.1663 19.1663H27.5V16.25H29.1663C29.6275 16.25 30 15.8775 30 15.4163C30 14.955 29.6275 14.5825 29.1663 14.5825H27.4788C27.3775 13.4875 26.5112 12.6212 25.4163 12.52V10.8325C25.4163 10.3725 25.0437 10 24.5837 10C24.1237 10 23.75 10.3725 23.75 10.8337V12.5H20.8337V10.8337C20.8337 10.3725 20.46 10 20 10C19.54 10 19.1663 10.3725 19.1663 10.8337V12.5H16.25V10.8337C16.25 10.3725 15.8775 10 15.4163 10C14.955 10 14.5825 10.3725 14.5825 10.8337V12.5213C13.4875 12.6225 12.6212 13.4887 12.52 14.5837H10.8325C10.3725 14.5837 10 14.9563 10 15.4163C10 15.8763 10.3725 16.25 10.8337 16.25H12.5V19.1663H10.8337C10.3725 19.1663 10 19.54 10 20C10 20.46 10.3725 20.8337 10.8337 20.8337H12.5V23.75H10.8337C10.3725 23.75 10 24.1225 10 24.5837C10 25.045 10.3725 25.4175 10.8337 25.4175H12.5213C12.6225 26.5125 13.4887 27.3787 14.5837 27.48V29.1675C14.5837 29.6275 14.9562 30.0012 15.4175 30.0012C15.8787 30.0012 16.25 29.6275 16.25 29.1663V27.5H19.1663V29.1663C19.1663 29.6275 19.54 30 20 30C20.46 30 20.8337 29.6275 20.8337 29.1663V27.5H23.75V29.1663C23.75 29.6275 24.1225 30 24.5837 30C25.045 30 25.4175 29.6275 25.4175 29.1663V27.4788C26.5125 27.3775 27.3787 26.5112 27.48 25.4163H29.1675C29.6275 25.4163 30.0012 25.0438 30.0012 24.5825C30.0012 24.1213 29.6275 23.75 29.1663 23.75H27.5V20.8337H29.1663ZM21.25 22.9063V23.5413C21.25 23.8863 20.97 24.1663 20.625 24.1663C20.28 24.1663 20 23.8863 20 23.5413V22.9163H19.5837V23.5413C19.5837 23.8863 19.3038 24.1663 18.9587 24.1663C18.6137 24.1663 18.3337 23.8863 18.3337 23.5413V22.9163H18.125C17.78 22.9163 17.5 22.6363 17.5 22.2913V20V17.7087C17.5 17.3637 17.78 17.0837 18.125 17.0837H18.3337V16.4587C18.3337 16.1137 18.6137 15.8337 18.9587 15.8337C19.3038 15.8337 19.5837 16.1137 19.5837 16.4587V17.0837H20V16.4587C20 16.1137 20.28 15.8337 20.625 15.8337C20.97 15.8337 21.25 16.1137 21.25 16.4587V17.17C21.9712 17.3925 22.5 18.0575 22.5 18.8513C22.5 19.1875 22.4025 19.4975 22.2412 19.7638C22.65 20.0875 22.9163 20.5825 22.9163 21.1425C22.9163 22.09 22.1763 22.8538 21.25 22.9063Z"
            fill="#F33C3C"/>
    </symbol>

    <symbol id="joystick" viewBox="0 0 40 40" fill="none">
        <path
            d="M32.5 40H7.5C3.3575 40 0 36.6425 0 32.5V7.5C0 3.3575 3.3575 0 7.5 0H32.5C36.6425 0 40 3.3575 40 7.5V32.5C40 36.6425 36.6425 40 32.5 40Z"
            fill="#FDE2E2"/>
        <path
            d="M25.2987 15.416H14.7012C12.1087 15.416 10 17.4723 10 19.9998C10 22.5273 12.11 24.5835 14.7012 24.5835C16.06 24.5835 17.3663 23.9973 18.255 22.9998H21.745C22.635 23.996 23.94 24.5835 25.2987 24.5835C27.8913 24.5835 30 22.5273 30 19.9998C30 17.4723 27.8913 15.416 25.2987 15.416ZM15.8337 20.8335H15.4175V21.2498C15.4175 21.7098 15.045 22.0835 14.5837 22.0835C14.1225 22.0835 13.75 21.7098 13.75 21.2498V20.8335H13.3337C12.8725 20.8335 12.5 20.4598 12.5 19.9998C12.5 19.5398 12.8725 19.166 13.3337 19.166H13.75V18.7498C13.75 18.2898 14.1225 17.916 14.5837 17.916C15.045 17.916 15.4175 18.2898 15.4175 18.7498V19.166H15.8337C16.295 19.166 16.6675 19.5398 16.6675 19.9998C16.6675 20.4598 16.2937 20.8335 15.8337 20.8335ZM25 17.4998C25.46 17.4998 25.8337 17.8723 25.8337 18.3335C25.8337 18.7935 25.4613 19.1673 25 19.1673C24.54 19.1673 24.1663 18.7948 24.1663 18.3335C24.1663 17.8723 24.54 17.4998 25 17.4998ZM23.3337 20.8335C22.8737 20.8335 22.5 20.4598 22.5 19.9998C22.5 19.5398 22.8725 19.166 23.3337 19.166C23.795 19.166 24.1675 19.5385 24.1675 19.9998C24.1662 20.4598 23.7937 20.8335 23.3337 20.8335ZM25 22.4998C24.54 22.4998 24.1663 22.1273 24.1663 21.666C24.1663 21.2048 24.5387 20.8323 25 20.8323C25.46 20.8323 25.8337 21.2048 25.8337 21.666C25.8337 22.1273 25.46 22.4998 25 22.4998ZM26.6675 20.8335C26.2075 20.8335 25.8337 20.461 25.8337 19.9998C25.8337 19.5398 26.2062 19.166 26.6675 19.166C27.1275 19.166 27.5 19.5398 27.5 19.9998C27.5 20.4598 27.1275 20.8335 26.6675 20.8335Z"
            fill="#F33C3C"/>
    </symbol>

    <symbol id="satellite" viewBox="0 0 40 40" fill="none">
        <path
            d="M32.5 40H7.5C3.3575 40 0 36.6425 0 32.5V7.5C0 3.3575 3.3575 0 7.5 0H32.5C36.6425 0 40 3.3575 40 7.5V32.5C40 36.6425 36.6425 40 32.5 40Z"
            fill="#FDE2E2"/>
        <path
            d="M15.6826 28.7399C15.5163 28.7399 15.3576 28.6737 15.2401 28.5574L11.4426 24.7612C11.1988 24.5174 11.1988 24.1212 11.4426 23.8774C12.6913 22.6262 14.8713 22.6262 16.1238 23.8774C17.4138 25.1674 17.4138 27.2674 16.1238 28.5574C16.0076 28.6737 15.8488 28.7399 15.6826 28.7399Z"
            fill="#F33C3C"/>
        <path
            d="M12.6828 27.3175C12.4391 27.0738 12.4391 26.6775 12.6828 26.4338L13.3078 25.8088C13.5516 25.565 13.9478 25.565 14.1916 25.8088C14.4353 26.0525 14.4353 26.4488 14.1916 26.6925L13.5666 27.3175C13.3228 27.5613 12.9278 27.5613 12.6828 27.3175Z"
            fill="#F33C3C"/>
        <path
            d="M16.4583 25.4163C16.2983 25.4163 16.1383 25.355 16.0158 25.2338C15.7721 24.99 15.7721 24.5938 16.0158 24.35L17.0571 23.3088C17.3008 23.065 17.6971 23.065 17.9408 23.3088C18.1846 23.5525 18.1846 23.9488 17.9408 24.1925L16.8996 25.2338C16.7783 25.3563 16.6183 25.4163 16.4583 25.4163Z"
            fill="#F33C3C"/>
        <path
            d="M15.2083 24.1663C15.0483 24.1663 14.8883 24.105 14.7658 23.9838C14.5221 23.74 14.5221 23.3438 14.7658 23.1L15.8071 22.0588C16.0508 21.815 16.4471 21.815 16.6908 22.0588C16.9346 22.3025 16.9346 22.6988 16.6908 22.9425L15.6496 23.9838C15.5283 24.1063 15.3683 24.1663 15.2083 24.1663Z"
            fill="#F33C3C"/>
        <path
            d="M16.8498 19.3996L15.5998 18.1496C15.3561 17.9058 15.3561 17.5096 15.5998 17.2658C15.8436 17.0221 16.2398 17.0221 16.4836 17.2658L17.7336 18.5158C17.9773 18.7596 17.9773 19.1558 17.7336 19.3996C17.4898 19.6433 17.0936 19.6433 16.8498 19.3996Z"
            fill="#F88F8F"/>
        <path
            d="M18.5158 17.7336L17.2658 16.4836C17.0221 16.2398 17.0221 15.8436 17.2658 15.5998C17.5096 15.3561 17.9058 15.3561 18.1496 15.5998L19.3996 16.8498C19.6433 17.0936 19.6433 17.4898 19.3996 17.7336C19.1558 17.9773 18.7596 17.9773 18.5158 17.7336Z"
            fill="#F88F8F"/>
        <path
            d="M21.8498 24.3996L20.5998 23.1496C20.3561 22.9058 20.3561 22.5096 20.5998 22.2658C20.8436 22.0221 21.2398 22.0221 21.4836 22.2658L22.7336 23.5158C22.9773 23.7596 22.9773 24.1558 22.7336 24.3996C22.4898 24.6446 22.0936 24.6446 21.8498 24.3996Z"
            fill="#F88F8F"/>
        <path
            d="M23.5158 22.7336L22.2658 21.4836C22.0221 21.2398 22.0221 20.8436 22.2658 20.5998C22.5096 20.3561 22.9058 20.3561 23.1496 20.5998L24.3996 21.8498C24.6433 22.0936 24.6433 22.4898 24.3996 22.7336C24.1558 22.9773 23.7596 22.9773 23.5158 22.7336Z"
            fill="#F88F8F"/>
        <path d="M11.8193 16.356L16.3813 11.7876L17.1654 12.5706L12.6034 17.139L11.8193 16.356Z" fill="#F88F8F"/>
        <path
            d="M10.9263 15.4737L15.4862 10.9087L14.99 10.4125C14.44 9.86121 13.475 9.86121 12.9275 10.4125L10.4275 12.9125C10.1513 13.1887 10 13.555 10 13.9437C10 14.3337 10.1513 14.6987 10.4275 14.975L10.9263 15.4737Z"
            fill="#F88F8F"/>
        <path
            d="M18.0366 13.46L13.4766 18.025L13.9678 18.5162C14.2428 18.7925 14.6103 18.9437 15.0003 18.9437C15.3903 18.9437 15.7566 18.7925 16.0316 18.5162L18.5316 16.0162C18.8078 15.7412 18.9591 15.375 18.9591 14.985C18.9591 14.595 18.8078 14.23 18.5316 13.9537L18.0366 13.46Z"
            fill="#F88F8F"/>
        <path
            d="M29.0737 24.5264L24.5137 29.0914L25.0099 29.5876C25.5599 30.1389 26.5249 30.1389 27.0724 29.5876L29.5724 27.0876C29.8487 26.8114 29.9999 26.4451 29.9999 26.0564C29.9999 25.6676 29.8487 25.3014 29.5724 25.0251L29.0737 24.5264Z"
            fill="#F88F8F"/>
        <path d="M22.8662 27.4194L27.4281 22.8511L28.2122 23.6341L23.6503 28.2024L22.8662 27.4194Z" fill="#F88F8F"/>
        <path
            d="M21.9635 26.5404L26.5235 21.9754L26.0323 21.4841C25.7573 21.2079 25.3898 21.0566 24.9998 21.0566C24.6098 21.0566 24.2435 21.2079 23.9685 21.4841L21.4685 23.9841C21.1923 24.2591 21.041 24.6254 21.041 25.0154C21.041 25.4054 21.1923 25.7704 21.4685 26.0466L21.9635 26.5404Z"
            fill="#F88F8F"/>
        <path
            d="M24.9949 19.1113C25.4274 18.5875 25.6749 17.9438 25.6749 17.255C25.6749 16.4726 25.3712 15.7363 24.8162 15.1826C23.7412 14.1063 22.0387 14.0563 20.8887 15.0051L24.9949 19.1113Z"
            fill="#F33C3C"/>
        <path
            d="M19.985 15.8687L15.4262 20.4274C15.1512 20.7024 15 21.0687 15 21.4587C15 21.8487 15.1513 22.2137 15.4275 22.4899L17.51 24.5724C17.785 24.8487 18.1513 24.9999 18.5413 24.9999C18.9313 24.9999 19.2975 24.8487 19.5725 24.5724L24.1313 20.0137L19.985 15.8687ZM19.1412 21.6924L18.3075 20.8587C18.0637 20.6149 18.0637 20.2187 18.3075 19.9749C18.5512 19.7312 18.9475 19.7312 19.1912 19.9749L20.025 20.8087C20.2688 21.0524 20.2688 21.4487 20.025 21.6924C19.7813 21.9362 19.385 21.9362 19.1412 21.6924Z"
            fill="#F33C3C"/>
    </symbol>

    <symbol id="person-skill" viewBox="0 0 40 40" fill="none">
        <path
            d="M32.5 40H7.5C3.3575 40 0 36.6425 0 32.5V7.5C0 3.3575 3.3575 0 7.5 0H32.5C36.6425 0 40 3.3575 40 7.5V32.5C40 36.6425 36.6425 40 32.5 40Z"
            fill="#FDE2E2"/>
        <path
            d="M27.4995 12.3V11.4587C27.4995 10.6587 26.8408 10 26.0408 10H24.357C24.132 10 23.9233 10.1163 23.8158 10.3163C23.707 10.5075 23.707 10.75 23.8158 10.9413C23.907 11.0913 23.957 11.275 23.957 11.4575C23.957 12.0325 23.4908 12.4987 22.9158 12.4987C22.3408 12.4987 21.8745 12.0325 21.8745 11.4575C21.8745 11.2738 21.9245 11.0913 22.0158 10.9413C22.1245 10.75 22.1245 10.5075 22.0158 10.3163C21.9083 10.1163 21.6995 10 21.4745 10H19.7908C18.9908 10 18.332 10.6587 18.332 11.4587V13.625C20.2733 14.3 21.6658 16.1587 21.6658 18.3337C21.6658 18.6175 21.6408 18.9 21.5908 19.1675H26.0408C26.8408 19.1675 27.4995 18.5087 27.4995 17.7087V16.8675C28.8245 16.9925 29.9995 15.9175 29.9995 14.5837C29.9995 13.25 28.8158 12.1838 27.4995 12.3Z"
            fill="#F88F8F"/>
        <path
            d="M16.6658 21.6663C14.827 21.6663 13.332 20.1713 13.332 18.3325C13.332 16.4938 14.8283 15 16.6658 15C18.5033 15 19.9995 16.495 19.9995 18.3337C19.9995 20.1725 18.5045 21.6663 16.6658 21.6663Z"
            fill="#F33C3C"/>
        <path
            d="M23.3337 29.9995H10V27.2908C10 25.1045 11.7725 23.332 13.9587 23.332H19.375C21.5612 23.332 23.3337 25.1045 23.3337 27.2908V29.9995Z"
            fill="#F33C3C"/>
    </symbol>

    <symbol id="smartphone" viewBox="0 0 40 40" fill="none">
        <path
            d="M32.5 40H7.5C3.3575 40 0 36.6425 0 32.5V7.5C0 3.3575 3.3575 0 7.5 0H32.5C36.6425 0 40 3.3575 40 7.5V32.5C40 36.6425 36.6425 40 32.5 40Z"
            fill="#FDE2E2"/>
        <path
            d="M21.6663 26.6663V27.5C21.6663 27.96 21.2938 28.3337 20.8325 28.3337H12.5C12.04 28.3337 11.6663 27.9613 11.6663 27.5V12.5C11.6663 12.04 12.0387 11.6663 12.5 11.6663H12.9163C13.3763 11.6663 13.75 12.04 13.75 12.5C13.75 12.96 14.1225 13.3337 14.5837 13.3337H18.75C19.21 13.3337 19.5837 12.9613 19.5837 12.5C19.5837 12.04 19.9562 11.6663 20.4175 11.6663H20.8337C21.2937 11.6663 21.6675 12.0387 21.6675 12.5V13.3337C21.6675 13.7937 22.04 14.1675 22.5012 14.1675C22.9612 14.1675 23.335 13.795 23.335 13.3337V12.5C23.335 11.1187 22.2162 10 20.835 10H12.5C11.1187 10 10 11.1187 10 12.5V27.5C10 28.8813 11.1187 30 12.5 30H20.8337C22.215 30 23.3337 28.8813 23.3337 27.5V26.6663C23.3337 26.2063 22.9613 25.8325 22.5 25.8325C22.04 25.8338 21.6663 26.2063 21.6663 26.6663Z"
            fill="#F33C3C"/>
        <path
            d="M29.9995 18.334V17.2927C29.9995 16.489 29.3458 15.834 28.5408 15.834H19.7908C18.987 15.834 18.332 16.4877 18.332 17.2927V18.334H29.9995Z"
            fill="#F88F8F"/>
        <path
            d="M18.334 20V22.7087C18.334 23.5125 18.9877 24.1675 19.7927 24.1675H28.5427C29.3465 24.1675 30.0015 23.5137 30.0015 22.7087V20H18.334Z"
            fill="#F88F8F"/>
    </symbol>

    <symbol id="security" viewBox="0 0 40 40" fill="none">
        <path
            d="M32.5 40H7.5C3.3575 40 0 36.6425 0 32.5V7.5C0 3.3575 3.3575 0 7.5 0H32.5C36.6425 0 40 3.3575 40 7.5V32.5C40 36.6425 36.6425 40 32.5 40Z"
            fill="#FDE2E2"/>
        <path
            d="M24.5762 10.4802L20.2012 8.99273C20.0712 8.94773 19.93 8.94773 19.7987 8.99273L15.4237 10.4802C15.17 10.5665 15 10.804 15 11.0715V14.4202C15 18.5077 19.5613 20.4927 19.7563 20.5765C19.835 20.609 19.9175 20.6265 20 20.6265C20.0825 20.6265 20.1662 20.6102 20.2437 20.5765C20.4387 20.4927 25 18.5077 25 14.4202V11.0715C25 10.804 24.83 10.5665 24.5762 10.4802ZM22.7387 13.6402L20.4475 16.5565C20.3075 16.7352 20.1 16.849 19.8738 16.8715C19.8475 16.874 19.8187 16.8752 19.7925 16.8752C19.595 16.8752 19.4012 16.8052 19.25 16.6752L17.7912 15.4252C17.4412 15.1252 17.4 14.6002 17.7013 14.2502C18.0013 13.9015 18.5275 13.8602 18.875 14.1602L19.6738 14.844L21.4287 12.6115C21.7125 12.2502 22.2363 12.1865 22.5988 12.4715C22.96 12.754 23.0238 13.279 22.7387 13.6402Z"
            fill="#F88F8F"/>
        <path
            d="M29.1675 23.125H28.3337V14.7913C28.3337 13.875 27.5837 13.125 26.6675 13.125V23.125H13.3325V13.125C12.4163 13.125 11.6663 13.875 11.6663 14.7913V23.125H10.8325C10.375 23.125 10 23.5 10 23.9587C10 24.4175 10.375 24.7925 10.8337 24.7925H29.1675C29.6262 24.7925 30.0012 24.4175 30.0012 23.9587C30 23.5 29.625 23.125 29.1675 23.125Z"
            fill="#F33C3C"/>
    </symbol>

    <symbol id="play-icon-red" viewBox="0 0 40 40" fill="none">
        <path
            d="M16.6663 27.5002V12.5002L26.6663 20.0002L16.6663 27.5002ZM19.9997 3.3335C17.811 3.3335 15.6437 3.76459 13.6216 4.60217C11.5995 5.43975 9.7622 6.66741 8.21456 8.21505C5.08896 11.3407 3.33301 15.5799 3.33301 20.0002C3.33301 24.4204 5.08896 28.6597 8.21456 31.7853C9.7622 33.3329 11.5995 34.5606 13.6216 35.3982C15.6437 36.2357 17.811 36.6668 19.9997 36.6668C24.42 36.6668 28.6592 34.9109 31.7848 31.7853C34.9104 28.6597 36.6663 24.4204 36.6663 20.0002C36.6663 17.8115 36.2352 15.6442 35.3977 13.6221C34.5601 11.6 33.3324 9.76269 31.7848 8.21505C30.2371 6.66741 28.3998 5.43975 26.3777 4.60217C24.3556 3.76459 22.1884 3.3335 19.9997 3.3335Z"
            fill="#F33C3C"/>
    </symbol>

    <symbol id="warning-icon" viewBox="0 0 24 24" fill="none">
        <path
            d="M11 15H13V17H11V15ZM11 7H13V13H11V7ZM12 2C6.47 2 2 6.5 2 12C2 14.6522 3.05357 17.1957 4.92893 19.0711C5.85752 19.9997 6.95991 20.7362 8.17317 21.2388C9.38642 21.7413 10.6868 22 12 22C14.6522 22 17.1957 20.9464 19.0711 19.0711C20.9464 17.1957 22 14.6522 22 12C22 10.6868 21.7413 9.38642 21.2388 8.17317C20.7362 6.95991 19.9997 5.85752 19.0711 4.92893C18.1425 4.00035 17.0401 3.26375 15.8268 2.7612C14.6136 2.25866 13.3132 2 12 2ZM12 20C9.87827 20 7.84344 19.1571 6.34315 17.6569C4.84285 16.1566 4 14.1217 4 12C4 9.87827 4.84285 7.84344 6.34315 6.34315C7.84344 4.84285 9.87827 4 12 4C14.1217 4 16.1566 4.84285 17.6569 6.34315C19.1571 7.84344 20 9.87827 20 12C20 14.1217 19.1571 16.1566 17.6569 17.6569C16.1566 19.1571 14.1217 20 12 20Z"
            fill="#181515"/>
    </symbol>

    <symbol id="chevron-down" viewBox="0 0 24 24" fill="none">
        <path d="M7 10L12 15L17 10H7Z" fill="#181515"/>
    </symbol>

    <symbol id="toggle-white" viewBox="0 0 24 24" fill="none">
        <path d="M7 10L12 15L17 10H7Z" fill="white"/>
    </symbol>

    <symbol id="close-icon" viewBox="0 0 28 28" fill="none">
        <path
            d="M22.1668 7.4785L20.5218 5.8335L14.0002 12.3552L7.4785 5.8335L5.8335 7.4785L12.3552 14.0002L5.8335 20.5218L7.4785 22.1668L14.0002 15.6452L20.5218 22.1668L22.1668 20.5218L15.6452 14.0002L22.1668 7.4785Z"
            fill="black"/>
    </symbol>

    <symbol id="google-icon" viewBox="0 0 20 20" fill="none">
        <path
            d="M4.43242 12.086L3.73625 14.6849L1.19176 14.7388C0.431328 13.3283 0 11.7146 0 9.99978C0 8.34154 0.403281 6.77779 1.11812 5.40088H1.11867L3.38398 5.81619L4.37633 8.06791C4.16863 8.67342 4.05543 9.32342 4.05543 9.99978C4.05551 10.7338 4.18848 11.4372 4.43242 12.086Z"
            fill="white"/>
        <path
            d="M19.8252 8.13184C19.94 8.73676 19.9999 9.36148 19.9999 9.99996C19.9999 10.7159 19.9246 11.4143 19.7812 12.0879C19.2944 14.3802 18.0224 16.3818 16.2604 17.7983L16.2598 17.7978L13.4065 17.6522L13.0027 15.1313C14.1719 14.4456 15.0857 13.3725 15.567 12.0879H10.2197V8.13184H15.645H19.8252Z"
            fill="white"/>
        <path
            d="M16.26 17.798L16.2606 17.7985C14.5469 19.176 12.3699 20.0001 10.0001 20.0001C6.1919 20.0001 2.88092 17.8716 1.19189 14.7392L4.43256 12.0864C5.27705 14.3403 7.45123 15.9447 10.0001 15.9447C11.0957 15.9447 12.1221 15.6485 13.0029 15.1315L16.26 17.798Z"
            fill="white"/>
        <path
            d="M16.383 2.30219L13.1434 4.95437C12.2319 4.38461 11.1544 4.05547 10 4.05547C7.39344 4.05547 5.17859 5.73348 4.37641 8.06812L1.11871 5.40109H1.11816C2.78246 2.1923 6.13519 0 10 0C12.4264 0 14.6511 0.864297 16.383 2.30219Z"
            fill="white"/>
    </symbol>

    <symbol id="fb-icon" viewBox="0 0 20 20" fill="none">
        <path
            d="M13.6288 10.3864H11.1253V19.558H7.33228V10.3864H5.52832V7.16309H7.33228V5.07727C7.33228 3.58568 8.04082 1.25 11.159 1.25L13.9687 1.26175V4.39049H11.9301C11.5957 4.39049 11.1255 4.55756 11.1255 5.26909V7.16609H13.9602L13.6288 10.3864Z"
            fill="white"/>
    </symbol>

    <symbol id="pass-eye" viewBox="0 0 24 24" fill="none">
        <path
            d="M12 9C11.2044 9 10.4413 9.31607 9.87868 9.87868C9.31607 10.4413 9 11.2044 9 12C9 12.7956 9.31607 13.5587 9.87868 14.1213C10.4413 14.6839 11.2044 15 12 15C12.7956 15 13.5587 14.6839 14.1213 14.1213C14.6839 13.5587 15 12.7956 15 12C15 11.2044 14.6839 10.4413 14.1213 9.87868C13.5587 9.31607 12.7956 9 12 9ZM12 17C10.6739 17 9.40215 16.4732 8.46447 15.5355C7.52678 14.5979 7 13.3261 7 12C7 10.6739 7.52678 9.40215 8.46447 8.46447C9.40215 7.52678 10.6739 7 12 7C13.3261 7 14.5979 7.52678 15.5355 8.46447C16.4732 9.40215 17 10.6739 17 12C17 13.3261 16.4732 14.5979 15.5355 15.5355C14.5979 16.4732 13.3261 17 12 17ZM12 4.5C7 4.5 2.73 7.61 1 12C2.73 16.39 7 19.5 12 19.5C17 19.5 21.27 16.39 23 12C21.27 7.61 17 4.5 12 4.5Z"
            fill="black"/>
    </symbol>

    <symbol id="profile-icon" viewBox="0 0 24 24" fill="none">
        <path
            d="M12 4C13.0609 4 14.0783 4.42143 14.8284 5.17157C15.5786 5.92172 16 6.93913 16 8C16 9.06087 15.5786 10.0783 14.8284 10.8284C14.0783 11.5786 13.0609 12 12 12C10.9391 12 9.92172 11.5786 9.17157 10.8284C8.42143 10.0783 8 9.06087 8 8C8 6.93913 8.42143 5.92172 9.17157 5.17157C9.92172 4.42143 10.9391 4 12 4V4ZM12 14C16.42 14 20 15.79 20 18V20H4V18C4 15.79 7.58 14 12 14Z"
            fill="#181515"/>
    </symbol>

    <symbol id="file" viewBox="0 0 24 24" fill="none">
        <path
            d="M6 2C4.89 2 4 2.89 4 4V20C4 20.5304 4.21071 21.0391 4.58579 21.4142C4.96086 21.7893 5.46957 22 6 22H10V20.09L12.09 18H6V16H14.09L16.09 14H6V12H18.09L20 10.09V8L14 2H6ZM13 3.5L18.5 9H13V3.5ZM20.15 13C20.076 12.9984 20.0024 13.0117 19.9337 13.0392C19.8649 13.0667 19.8025 13.1078 19.75 13.16L18.73 14.18L20.82 16.26L21.84 15.25C22.05 15.03 22.05 14.67 21.84 14.46L20.54 13.16C20.4889 13.1087 20.4281 13.0682 20.3611 13.0407C20.2942 13.0132 20.2224 12.9994 20.15 13V13ZM18.14 14.77L12 20.92V23H14.08L20.23 16.85L18.14 14.77V14.77Z"
            fill="#181515"/>
    </symbol>

    <symbol id="bell" viewBox="0 0 24 24" fill="none">
        <path
            d="M21 19V20H3V19L5 17V11C5 7.9 7.03 5.17 10 4.29V4C10 3.46957 10.2107 2.96086 10.5858 2.58579C10.9609 2.21071 11.4696 2 12 2C12.5304 2 13.0391 2.21071 13.4142 2.58579C13.7893 2.96086 14 3.46957 14 4V4.29C16.97 5.17 19 7.9 19 11V17L21 19ZM14 21C14 21.5304 13.7893 22.0391 13.4142 22.4142C13.0391 22.7893 12.5304 23 12 23C11.4696 23 10.9609 22.7893 10.5858 22.4142C10.2107 22.0391 10 21.5304 10 21"
            fill="#181515"/>
    </symbol>

    <symbol id="exit" viewBox="0 0 24 24" fill="none">
        <path
            d="M19 3H5C3.89 3 3 3.89 3 5V9H5V5H19V19H5V15H3V19C3 19.5304 3.21071 20.0391 3.58579 20.4142C3.96086 20.7893 4.46957 21 5 21H19C19.5304 21 20.0391 20.7893 20.4142 20.4142C20.7893 20.0391 21 19.5304 21 19V5C21 4.46957 20.7893 3.96086 20.4142 3.58579C20.0391 3.21071 19.5304 3 19 3ZM10.08 15.58L11.5 17L16.5 12L11.5 7L10.08 8.41L12.67 11H3V13H12.67L10.08 15.58Z"
            fill="#181515"/>
    </symbol>

    <symbol id="rocket" viewBox="0 0 24 24" fill="none">
        <path
            d="M13.1305 22.1902L11.5005 18.3602C13.0705 17.7802 14.5405 17.0002 15.9005 16.0902L13.1305 22.1902ZM5.64055 12.5002L1.81055 10.8702L7.91055 8.10015C7.00055 9.46016 6.22055 10.9302 5.64055 12.5002ZM21.6105 2.39015C21.6105 2.39015 16.6605 0.269155 11.0005 5.93015C8.81055 8.12015 7.50055 10.5302 6.65055 12.6402C6.37055 13.3902 6.56055 14.2102 7.11055 14.7702L9.24055 16.8902C9.79055 17.4502 10.6105 17.6302 11.3605 17.3502C13.8791 16.3899 16.1659 14.9074 18.0705 13.0002C23.7305 7.34015 21.6105 2.39015 21.6105 2.39015ZM14.5405 9.46015C13.7605 8.68015 13.7605 7.41015 14.5405 6.63015C15.3205 5.85015 16.5905 5.85015 17.3705 6.63015C18.1405 7.41015 18.1505 8.68015 17.3705 9.46015C16.5905 10.2402 15.3205 10.2402 14.5405 9.46015ZM8.88055 16.5302L7.47055 15.1202L8.88055 16.5302ZM6.24055 22.0002L9.88055 18.3602C9.54055 18.2702 9.21055 18.1202 8.91055 17.9102L4.83055 22.0002H6.24055ZM2.00055 22.0002H3.41055L8.18055 17.2402L6.76055 15.8302L2.00055 20.5902V22.0002ZM2.00055 19.1702L6.09055 15.0902C5.88055 14.7902 5.73055 14.4702 5.64055 14.1202L2.00055 17.7602V19.1702Z"
            fill="black"/>
    </symbol>

    <symbol id="handshake" viewBox="0 0 24 24" fill="none">
        <path
            d="M11.0007 6.0001H14.0007L17.2907 2.7001C17.3837 2.60637 17.4943 2.53197 17.6161 2.4812C17.738 2.43044 17.8687 2.4043 18.0007 2.4043C18.1327 2.4043 18.2634 2.43044 18.3853 2.4812C18.5072 2.53197 18.6178 2.60637 18.7107 2.7001L21.2907 5.2901C21.477 5.47746 21.5815 5.73091 21.5815 5.9951C21.5815 6.25928 21.477 6.51273 21.2907 6.7001L19.0007 9.0001H11.0007V11.0001C11.0007 11.2653 10.8954 11.5197 10.7078 11.7072C10.5203 11.8947 10.2659 12.0001 10.0007 12.0001C9.7355 12.0001 9.48114 11.8947 9.29361 11.7072C9.10607 11.5197 9.00071 11.2653 9.00071 11.0001V8.0001C9.00071 7.46966 9.21143 6.96095 9.5865 6.58588C9.96157 6.21081 10.4703 6.0001 11.0007 6.0001ZM5.00071 11.0001V15.0001L2.71071 17.2901C2.52446 17.4775 2.41992 17.7309 2.41992 17.9951C2.41992 18.2593 2.52446 18.5127 2.71071 18.7001L5.29071 21.2901C5.38368 21.3838 5.49428 21.4582 5.61614 21.509C5.738 21.5598 5.8687 21.5859 6.00071 21.5859C6.13273 21.5859 6.26343 21.5598 6.38529 21.509C6.50715 21.4582 6.61775 21.3838 6.71071 21.2901L11.0007 17.0001H15.0007C15.2659 17.0001 15.5203 16.8947 15.7078 16.7072C15.8954 16.5197 16.0007 16.2653 16.0007 16.0001V15.0001H17.0007C17.2659 15.0001 17.5203 14.8947 17.7078 14.7072C17.8954 14.5197 18.0007 14.2653 18.0007 14.0001V13.0001H19.0007C19.2659 13.0001 19.5203 12.8947 19.7078 12.7072C19.8954 12.5197 20.0007 12.2653 20.0007 12.0001V11.0001H13.0007V12.0001C13.0007 12.5305 12.79 13.0392 12.4149 13.4143C12.0399 13.7894 11.5311 14.0001 11.0007 14.0001H9.00071C8.47028 14.0001 7.96157 13.7894 7.5865 13.4143C7.21143 13.0392 7.00071 12.5305 7.00071 12.0001V9.0001L5.00071 11.0001Z"
            fill="black"/>
    </symbol>

    <symbol id="bell-red-bg" viewBox="0 0 24 24" fill="none">
        <rect width="24" height="24" rx="7" fill="#F33C3C"/>
        <path
            d="M18 16.6668V17.3335H6V16.6668L7.33333 15.3335V11.3335C7.33333 9.26683 8.68667 7.44683 10.6667 6.86016V6.66683C10.6667 6.31321 10.8071 5.97407 11.0572 5.72402C11.3072 5.47397 11.6464 5.3335 12 5.3335C12.3536 5.3335 12.6928 5.47397 12.9428 5.72402C13.1929 5.97407 13.3333 6.31321 13.3333 6.66683V6.86016C15.3133 7.44683 16.6667 9.26683 16.6667 11.3335V15.3335L18 16.6668ZM13.3333 18.0002C13.3333 18.3538 13.1929 18.6929 12.9428 18.943C12.6928 19.193 12.3536 19.3335 12 19.3335C11.6464 19.3335 11.3072 19.193 11.0572 18.943C10.8071 18.6929 10.6667 18.3538 10.6667 18.0002"
            fill="white"/>
    </symbol>

    <symbol id="edit-colored" viewBox="0 0 24 24" fill="none">
        <path
            d="M5 3C3.89 3 3 3.89 3 5V19C3 19.5304 3.21071 20.0391 3.58579 20.4142C3.96086 20.7893 4.46957 21 5 21H19C19.5304 21 20.0391 20.7893 20.4142 20.4142C20.7893 20.0391 21 19.5304 21 19V12H19V19H5V5H12V3H5ZM17.78 4C17.6 4.00152 17.4278 4.07329 17.3 4.2L16.08 5.41L18.58 7.91L19.8 6.7C20.06 6.44 20.06 6 19.8 5.75L18.25 4.2C18.12 4.07 17.95 4 17.78 4ZM15.37 6.12L8 13.5V16H10.5L17.87 8.62L15.37 6.12Z"
            fill="#F33C3C"/>
    </symbol>

    <symbol id="pencil" viewBox="0 0 24 24" fill="none">
        <path
            d="M20.71 7.04006C21.1 6.65006 21.1 6.00006 20.71 5.63006L18.37 3.29006C18 2.90006 17.35 2.90006 16.96 3.29006L15.12 5.12006L18.87 8.87006L20.71 7.04006ZM3 17.2501V21.0001H6.75L17.81 9.93006L14.06 6.18006L3 17.2501Z"
            fill="black"/>
    </symbol>

    <symbol id="chevron-left" viewBox="0 0 24 24" fill="none">
        <path
            d="M20.0002 11.0001V13.0001H8.00016L13.5002 18.5001L12.0802 19.9201L4.16016 12.0001L12.0802 4.08008L13.5002 5.50008L8.00016 11.0001H20.0002Z"
            fill="#F33C3C"/>
    </symbol>

    <symbol id="pdf-icon" viewBox="0 0 45 45" fill="none">
        <path
            d="M45 37.955C45 41.8459 41.8459 45 37.955 45H7.04501C3.15414 45 0 41.8459 0 37.955V9.15851L9.15851 0H37.955C41.8459 0 45 3.15414 45 7.04501V37.955Z"
            fill="#E24C3F"/>
        <path opacity="0.2" d="M0 14.0667V9.15869H4.88457L0 14.0667Z" fill="#5D5D5D"/>
        <path d="M0 9.15851H6.10573C7.78474 9.15851 9.15851 7.80816 9.15851 6.12916V0L0 9.15851Z" fill="#FF7063"/>
        <path
            d="M7.54297 30.2684V15.5337H14.8361C15.5284 15.5337 16.1433 15.6469 16.6806 15.8729C17.2176 16.0991 17.6629 16.4136 18.0163 16.8164C18.3695 17.2192 18.6382 17.6999 18.8219 18.2581C19.0055 18.8166 19.0975 19.4347 19.0975 20.1131C19.0975 20.7916 19.0091 21.4276 18.8324 22.0212C18.6556 22.6148 18.3941 23.1273 18.0481 23.5583C17.7015 23.9896 17.2601 24.3289 16.7231 24.576C16.1857 24.8235 15.5569 24.947 14.836 24.947H9.93862V30.2685H7.54297V30.2684ZM9.93871 17.7386V22.6996H14.0094C14.9422 22.6996 15.6239 22.4913 16.0553 22.0742C16.4862 21.6575 16.7018 21.0035 16.7018 20.113C16.7018 19.265 16.4721 18.6574 16.0128 18.2897C15.5534 17.9224 14.8855 17.7385 14.0094 17.7385H9.93871V17.7386Z"
            fill="#FF7063"/>
        <path
            d="M27.7268 15.9159L30.0378 15.2798V27.8308C30.0378 28.0995 30.0515 28.3396 30.08 28.5517C30.1082 28.7637 30.1437 28.9618 30.186 29.1453C30.2424 29.3149 30.306 29.4952 30.3769 29.6859C30.4474 29.8768 30.5391 30.0712 30.6525 30.269H28.2143C28.1295 30.1278 28.0447 29.937 27.9599 29.6966C27.9031 29.4421 27.8609 29.2162 27.8327 29.0182C27.4088 29.4421 26.9244 29.7993 26.3804 30.0888C25.8361 30.3783 25.2531 30.5234 24.6313 30.5234C23.8962 30.5234 23.2497 30.4032 22.6914 30.163C22.1329 29.9228 21.6632 29.5906 21.2815 29.1666C20.9 28.7426 20.6138 28.2374 20.4229 27.6507C20.2322 27.0644 20.1367 26.4316 20.1367 25.7532V24.7355C20.1367 22.9407 20.6101 21.5908 21.5573 20.6861C22.5039 19.7817 23.8821 19.3293 25.6914 19.3293C26.3838 19.3293 27.0621 19.4637 27.7267 19.7321L27.7268 15.9159ZM27.7268 21.8734C27.4157 21.6899 27.059 21.5627 26.6562 21.4917C26.2534 21.4212 25.875 21.3858 25.5218 21.3858C24.9565 21.3858 24.4794 21.4636 24.0908 21.6189C23.7019 21.7747 23.3839 21.9936 23.1367 22.2762C22.8892 22.559 22.7128 22.8983 22.6066 23.2938C22.5007 23.6897 22.4477 24.1207 22.4477 24.5871V25.3716C22.4477 25.7674 22.4758 26.1527 22.5325 26.527C22.5887 26.9017 22.6985 27.2303 22.8611 27.5128C23.0233 27.7958 23.246 28.0253 23.5288 28.2018C23.8114 28.3787 24.1788 28.4669 24.6313 28.4669C24.9282 28.4669 25.2213 28.4175 25.5113 28.3184C25.8007 28.2197 26.0801 28.0889 26.3487 27.9263C26.6171 27.7639 26.8681 27.5837 27.1012 27.3856C27.3344 27.1878 27.543 26.9828 27.7268 26.7708V21.8734Z"
            fill="#FF7063"/>
        <path
            d="M32.9838 18.3963C32.9838 18.0008 33.0368 17.6156 33.1429 17.2409C33.2489 16.8666 33.4149 16.5343 33.641 16.2444C33.867 15.955 34.1639 15.7217 34.5314 15.5449C34.8988 15.3683 35.337 15.2798 35.846 15.2798C36.0862 15.2798 36.358 15.3046 36.6622 15.354C36.9661 15.4037 37.231 15.4637 37.4573 15.5343V17.3575H36.6092C36.1709 17.3575 35.8424 17.4777 35.6235 17.718C35.4042 17.9585 35.2948 18.2904 35.2948 18.7144V19.5837H37.3515L36.7366 21.4917H35.2949V30.269H32.984V21.4917H31.6484V19.5837H32.984V18.3963H32.9838Z"
            fill="#FF7063"/>
        <path
            d="M7.54297 29.7401V15.0054H14.8361C15.5284 15.0054 16.1433 15.1186 16.6806 15.3446C17.2176 15.5708 17.6629 15.8853 18.0163 16.2881C18.3695 16.6909 18.6382 17.1715 18.8219 17.7298C19.0055 18.2883 19.0975 18.9064 19.0975 19.5848C19.0975 20.2632 19.0091 20.8993 18.8324 21.4929C18.6556 22.0865 18.3941 22.599 18.0481 23.03C17.7015 23.4612 17.2601 23.8005 16.7231 24.0476C16.1857 24.2952 15.5569 24.4187 14.836 24.4187H9.93862V29.7402H7.54297V29.7401ZM9.93871 17.2103V22.1713H14.0094C14.9422 22.1713 15.6239 21.9629 16.0553 21.5459C16.4862 21.1292 16.7018 20.4752 16.7018 19.5847C16.7018 18.7367 16.4721 18.1291 16.0128 17.7614C15.5534 17.3941 14.8855 17.2102 14.0094 17.2102H9.93871V17.2103Z"
            fill="white"/>
        <path
            d="M27.7268 15.3871L30.0378 14.751V27.302C30.0378 27.5707 30.0515 27.8108 30.08 28.0229C30.1082 28.2348 30.1437 28.433 30.186 28.6165C30.2424 28.7861 30.306 28.9664 30.3769 29.1571C30.4474 29.348 30.5391 29.5424 30.6525 29.7402H28.2143C28.1295 29.599 28.0447 29.4082 27.9599 29.1678C27.9031 28.9133 27.8609 28.6874 27.8327 28.4893C27.4088 28.9133 26.9244 29.2705 26.3804 29.56C25.8361 29.8495 25.2531 29.9946 24.6313 29.9946C23.8962 29.9946 23.2497 29.8744 22.6914 29.6342C22.1329 29.394 21.6632 29.0618 21.2815 28.6378C20.9 28.2138 20.6138 27.7086 20.4229 27.1219C20.2322 26.5356 20.1367 25.9028 20.1367 25.2243V24.2067C20.1367 22.4119 20.6101 21.062 21.5573 20.1573C22.5039 19.2529 23.8821 18.8004 25.6914 18.8004C26.3838 18.8004 27.0621 18.9349 27.7267 19.2032L27.7268 15.3871ZM27.7268 21.3446C27.4157 21.161 27.059 21.0339 26.6562 20.9629C26.2534 20.8924 25.875 20.857 25.5218 20.857C24.9565 20.857 24.4794 20.9348 24.0908 21.0901C23.7019 21.2459 23.3839 21.4648 23.1367 21.7474C22.8892 22.0302 22.7128 22.3694 22.6066 22.765C22.5007 23.1609 22.4477 23.5919 22.4477 24.0583V24.8428C22.4477 25.2386 22.4758 25.6239 22.5325 25.9982C22.5887 26.3729 22.6985 26.7015 22.8611 26.984C23.0233 27.267 23.246 27.4964 23.5288 27.673C23.8114 27.8499 24.1788 27.9381 24.6313 27.9381C24.9282 27.9381 25.2213 27.8887 25.5113 27.7896C25.8007 27.6909 26.0801 27.5601 26.3487 27.3975C26.6171 27.2351 26.8681 27.0549 27.1012 26.8568C27.3344 26.659 27.543 26.454 27.7268 26.242V21.3446Z"
            fill="white"/>
        <path
            d="M32.9838 17.8675C32.9838 17.472 33.0368 17.0867 33.1429 16.712C33.2489 16.3378 33.4149 16.0055 33.641 15.7156C33.867 15.4262 34.1639 15.1929 34.5314 15.016C34.8988 14.8395 35.337 14.751 35.846 14.751C36.0862 14.751 36.358 14.7758 36.6622 14.8252C36.9661 14.8749 37.231 14.9349 37.4573 15.0055V16.8287H36.6092C36.1709 16.8287 35.8424 16.9489 35.6235 17.1892C35.4042 17.4297 35.2948 17.7616 35.2948 18.1856V19.0549H37.3515L36.7366 20.9629H35.2949V29.7402H32.984V20.9629H31.6484V19.0549H32.984V17.8675H32.9838Z"
            fill="white"/>
    </symbol>

    <symbol id="paper-clip" viewBox="0 0 20 20" fill="none">
        <path
            d="M13.7487 5.00016V14.5835C13.7487 15.4675 13.3975 16.3154 12.7724 16.9405C12.1473 17.5656 11.2994 17.9168 10.4154 17.9168C9.53131 17.9168 8.68346 17.5656 8.05834 16.9405C7.43322 16.3154 7.08203 15.4675 7.08203 14.5835V4.16683C7.08203 3.61429 7.30152 3.08439 7.69223 2.69369C8.08293 2.30299 8.61283 2.0835 9.16536 2.0835C9.7179 2.0835 10.2478 2.30299 10.6385 2.69369C11.0292 3.08439 11.2487 3.61429 11.2487 4.16683V12.9168C11.2487 13.1378 11.1609 13.3498 11.0046 13.5061C10.8483 13.6624 10.6364 13.7502 10.4154 13.7502C10.1944 13.7502 9.98239 13.6624 9.82611 13.5061C9.66983 13.3498 9.58203 13.1378 9.58203 12.9168V5.00016H8.33203V12.9168C8.33203 13.4694 8.55152 13.9993 8.94223 14.39C9.33293 14.7807 9.86283 15.0002 10.4154 15.0002C10.9679 15.0002 11.4978 14.7807 11.8885 14.39C12.2792 13.9993 12.4987 13.4694 12.4987 12.9168V4.16683C12.4987 3.28277 12.1475 2.43493 11.5224 1.80981C10.8973 1.18469 10.0494 0.833496 9.16536 0.833496C8.28131 0.833496 7.43346 1.18469 6.80834 1.80981C6.18322 2.43493 5.83203 3.28277 5.83203 4.16683V14.5835C5.83203 15.7991 6.31492 16.9649 7.17446 17.8244C8.034 18.6839 9.19979 19.1668 10.4154 19.1668C11.6309 19.1668 12.7967 18.6839 13.6563 17.8244C14.5158 16.9649 14.9987 15.7991 14.9987 14.5835V5.00016H13.7487Z"
            fill="#181515"/>
    </symbol>

    <symbol id="download" viewBox="0 0 24 24" fill="none">
        <path d="M5 20H19V18H5V20ZM19 9H15V3H9V9H5L12 16L19 9Z" fill="#F33C3C"/>
    </symbol>

    <symbol id="right-red" viewBox="0 0 24 24" fill="none">
        <path
            d="M4 11.0001V13.0001H16L10.5 18.5001L11.92 19.9201L19.84 12.0001L11.92 4.08008L10.5 5.50008L16 11.0001H4Z"
            fill="#F33C3C"/>
    </symbol>

    <symbol id="star-box" viewBox="0 0 100 100" fill="none">
        <path
            d="M81.25 100H18.75C8.39375 100 0 91.6062 0 81.25V18.75C0 8.39375 8.39375 0 18.75 0H81.25C91.6062 0 100 8.39375 100 18.75V81.25C100 91.6062 91.6062 100 81.25 100Z"
            fill="#FFF9DD"/>
        <path
            d="M57.4035 66.6645C57.0972 66.6645 56.791 66.5738 56.5253 66.3926L50.0004 61.9551L43.4754 66.3957C42.941 66.7613 42.2347 66.7582 41.7004 66.3832C41.1691 66.0113 40.9222 65.3488 41.0816 64.7176L43.1129 56.6988L37.0066 51.4832C36.5222 51.0676 36.3379 50.402 36.541 49.7957C36.7441 49.1895 37.2972 48.7707 37.9316 48.7332L45.7129 48.2926L48.5316 40.6051C48.7566 39.9895 49.3441 39.5801 49.9972 39.5801C50.6504 39.5801 51.2379 39.9895 51.4629 40.6051L54.2816 48.2926L62.0629 48.7332C62.7003 48.7707 63.2503 49.1895 63.4535 49.7957C63.6566 50.3988 63.4753 51.0676 62.9878 51.4832L56.8816 56.6988L58.9128 64.7176C59.0722 65.3488 58.8253 66.0082 58.2941 66.3832C58.0316 66.5707 57.716 66.6645 57.4035 66.6645Z"
            fill="#FFE777"/>
        <path
            d="M68.75 27.085H31.25C27.8031 27.085 25 29.8881 25 33.335V66.6693C25 70.1162 27.8031 72.9193 31.25 72.9193H68.75C72.1969 72.9193 75 70.1162 75 66.6693V33.335C75 29.8881 72.1969 27.085 68.75 27.085ZM68.75 68.7506H31.25C30.1 68.7506 29.1656 67.8162 29.1656 66.6662V37.5006H70.8313V66.6662C70.8344 67.8162 69.9 68.7506 68.75 68.7506Z"
            fill="#FFD200"/>
    </symbol>

    <symbol id="sort" viewBox="0 0 100 100" fill="none">
        <path
            d="M81.25 100H18.75C8.39386 100 0 91.6061 0 81.25V18.75C0 8.39386 8.39386 0 18.75 0H81.25C91.6061 0 100 8.39386 100 18.75V81.25C100 91.6061 91.6061 100 81.25 100Z"
            fill="#FFE6E2"/>
        <path
            d="M33.3344 68.7499C32.1815 68.7499 31.25 67.8183 31.25 66.6655V31.2499C31.25 30.1001 32.1815 29.1655 33.3344 29.1655C34.4872 29.1655 35.4187 30.1001 35.4187 31.2499V66.6655C35.4187 67.8183 34.4841 68.7499 33.3344 68.7499Z"
            fill="#FD907E"/>
        <path d="M26.5625 61.978L33.3344 69.2717L40.1031 61.978H26.5625Z" fill="#FD907E"/>
        <path
            d="M33.3346 70.8341C32.9005 70.8341 32.4877 70.6525 32.1879 70.3344L25.4161 63.0437C24.9942 62.5875 24.8812 61.9245 25.1284 61.3561C25.3756 60.787 25.941 60.4185 26.5597 60.4185H40.1004C40.7222 60.4185 41.2844 60.787 41.5316 61.3561C41.7781 61.9245 41.669 62.5905 41.244 63.0437L34.4722 70.3344C34.1815 70.6525 33.7687 70.8341 33.3346 70.8341ZM30.147 63.5404L33.3346 66.9713L36.5222 63.5404H30.147Z"
            fill="#FD907E"/>
        <path
            d="M57.2938 45.8346C56.4317 45.8346 55.7313 45.135 55.7313 44.2721V32.2939H53.647C52.7849 32.2939 52.0845 31.5943 52.0845 30.7314C52.0845 29.8693 52.7849 29.1689 53.647 29.1689H57.2938C58.1567 29.1689 58.8563 29.8693 58.8563 30.7314V44.2721C58.8563 45.135 58.1567 45.8346 57.2938 45.8346Z"
            fill="#FC573B"/>
        <path
            d="M58.8563 70.8342H53.647C52.7849 70.8342 52.0845 70.1346 52.0845 69.2717C52.0845 68.4096 52.7849 67.7092 53.647 67.7092H58.8563C59.144 67.7092 59.3782 67.475 59.3782 67.1874V64.5842H55.7313C53.7217 64.5842 52.0845 62.95 52.0845 60.9374V57.8124C52.0845 55.8028 53.7187 54.1655 55.7313 54.1655H58.8563C60.8659 54.1655 62.5032 55.7997 62.5032 57.8124V67.1874C62.5001 69.197 60.8659 70.8342 58.8563 70.8342ZM55.7313 57.2905C55.4437 57.2905 55.2095 57.5247 55.2095 57.8124V60.9374C55.2095 61.225 55.4437 61.4592 55.7313 61.4592H59.3751V57.8124C59.3751 57.5247 59.1409 57.2905 58.8533 57.2905H55.7313Z"
            fill="#FC573B"/>
        <path
            d="M60.9376 45.8345H53.647C52.7849 45.8345 52.0845 45.1349 52.0845 44.272C52.0845 43.4099 52.7849 42.7095 53.647 42.7095H60.9376C61.7997 42.7095 62.5001 43.4099 62.5001 44.272C62.5001 45.1349 61.7997 45.8345 60.9376 45.8345Z"
            fill="#FC573B"/>
    </symbol>

    <symbol id="copy" viewBox="0 0 100 100" fill="none">
        <path
            d="M81.25 100H18.75C8.39375 100 0 91.6062 0 81.25V18.75C0 8.39375 8.39375 0 18.75 0H81.25C91.6062 0 100 8.39375 100 18.75V81.25C100 91.6062 91.6062 100 81.25 100Z"
            fill="#FFF9DD"/>
        <path
            d="M33.3345 39.0625C33.3345 33.6062 37.7751 29.1656 43.2313 29.1656H62.2595C61.572 26.7688 59.3845 25 56.772 25H32.8126C29.6532 25 27.0845 27.5688 27.0845 30.7281V63.0188C27.0845 66.1813 29.6532 68.75 32.8126 68.75H33.3345V39.0625Z"
            fill="#FFE777"/>
        <path
            d="M67.1875 33.3345H43.2281C40.0688 33.3345 37.5 35.9032 37.5 39.0626V69.272C37.5 72.4313 40.0688 75.0001 43.2281 75.0001H67.1875C70.3469 75.0001 72.9156 72.4313 72.9156 69.272V39.0626C72.9156 35.9032 70.3469 33.3345 67.1875 33.3345ZM63.0219 68.7501H47.3969C46.5344 68.7501 45.8344 68.0501 45.8344 67.1876C45.8344 66.3251 46.5344 65.6251 47.3969 65.6251H63.0219C63.8844 65.6251 64.5844 66.3251 64.5844 67.1876C64.5844 68.0501 63.8844 68.7501 63.0219 68.7501ZM63.0219 60.4157H47.3969C46.5344 60.4157 45.8344 59.7157 45.8344 58.8532C45.8344 57.9907 46.5344 57.2907 47.3969 57.2907H63.0219C63.8844 57.2907 64.5844 57.9907 64.5844 58.8532C64.5844 59.7157 63.8844 60.4157 63.0219 60.4157ZM63.0219 53.1251H47.3969C46.5344 53.1251 45.8344 52.4251 45.8344 51.5626C45.8344 50.7001 46.5344 50.0001 47.3969 50.0001H63.0219C63.8844 50.0001 64.5844 50.7001 64.5844 51.5626C64.5844 52.4251 63.8844 53.1251 63.0219 53.1251ZM63.0219 44.7907H47.3969C46.5344 44.7907 45.8344 44.0907 45.8344 43.2282C45.8344 42.3657 46.5344 41.6657 47.3969 41.6657H63.0219C63.8844 41.6657 64.5844 42.3657 64.5844 43.2282C64.5844 44.0907 63.8844 44.7907 63.0219 44.7907Z"
            fill="#FFD200"/>
    </symbol>

    <symbol id="arrow24x24" viewBox="0 0 24 24" fill="none">
        <path
            d="M4 11.0001V13.0001H16L10.5 18.5001L11.92 19.9201L19.84 12.0001L11.92 4.08008L10.5 5.50008L16 11.0001H4Z"
            fill="white"/>
    </symbol>

    <symbol id="announcement" viewBox="0 0 60 60" fill="none">
        <g clip-path="url(#clip0)">
            <path
                d="M30 60C46.5685 60 60 46.5685 60 30C60 13.4315 46.5685 0 30 0C13.4315 0 0 13.4315 0 30C0 46.5685 13.4315 60 30 60Z"
                fill="white"/>
            <path
                d="M60.0005 29.9999C60.0005 29.8631 59.9971 29.7273 59.9954 29.591L51.0355 20.5696L50.9922 20.6366L44.8605 14.538L42.5977 18.327L35.9426 11.6719L33.0363 23.34L10.7646 41.222L29.5367 59.994C29.6913 59.9964 29.8455 59.9999 30.0005 59.9999C46.5691 59.9999 60.0005 46.5684 60.0005 29.9999Z"
                fill="#EDEDED"/>
            <path d="M30.5843 47.6604L23.2134 50.148L18.0273 35.3237L25.3984 32.8359L30.5843 47.6604Z" fill="#F33C3C"/>
            <path
                d="M45.8263 39.9268C45.8263 39.9268 28.4863 35.1492 16.7864 39.2421L13.6616 30.3097C25.3615 26.2168 35.9419 11.6719 35.9419 11.6719L45.8263 39.9268Z"
                fill="#181515"/>
            <path
                d="M15.5571 35.727L16.7868 39.242C28.4868 35.149 45.8268 39.9267 45.8268 39.9267L40.8305 25.6445L15.5571 35.727Z"
                fill="black"/>
            <path
                d="M35.942 11.6719C35.942 11.6719 34.618 13.4913 32.3906 16.0232L40.337 38.7382C43.6569 39.3295 45.8265 39.9268 45.8265 39.9268L35.942 11.6719Z"
                fill="#F33C3C"/>
            <path
                d="M36.3779 27.4207L40.3371 38.7381C43.657 39.3295 45.8266 39.9268 45.8266 39.9268L40.8304 25.6445L36.3779 27.4207Z"
                fill="#DE2D2D"/>
            <path d="M10.764 41.2223L16.7865 39.2424L13.6617 30.3101L7.67871 32.403L10.764 41.2223Z" fill="#F33C3C"/>
            <path d="M9.66455 38.078L10.7645 41.222L16.787 39.2421L15.5573 35.7271L9.66455 38.078Z" fill="#DE2D2D"/>
            <path d="M43.2996 23.8502L44.2148 26.0078L51.949 22.7272L51.0337 20.5695L43.2996 23.8502Z" fill="#FFDC00"/>
            <path d="M51.9505 22.7268L51.4363 21.5146L43.6787 24.7411L44.2161 26.0081L51.9505 22.7268Z" fill="#FFC000"/>
            <path d="M39.9999 19.8227L42.1484 20.7593L44.8603 14.538L42.7118 13.6015L39.9999 19.8227Z" fill="#FFDC00"/>
            <path d="M44.6201 31.7831L51.2163 33.3765L51.7666 31.0985L45.1704 29.5051L44.6201 31.7831Z" fill="#FFC000"/>
        </g>
        <defs>
            <clipPath id="clip0">
                <rect width="60" height="60" fill="white"/>
            </clipPath>
        </defs>
    </symbol>

    <symbol id="plus-white" viewBox="0 0 20 20" fill="none">
        <path
            d="M15.8327 10.8332H10.8327V15.8332H9.16602V10.8332H4.16602V9.1665H9.16602V4.1665H10.8327V9.1665H15.8327V10.8332Z"
            fill="white"/>
    </symbol>
</svg>
