<svg width="319" height="263" viewBox="0 0 319 263" fill="none" xmlns="http://www.w3.org/2000/svg">
<g clip-path="url(#clip0)">
<path d="M60.1505 203.653C60.1505 203.653 178.845 104.593 247.206 203.653H60.1505Z" fill="#F2F2F2"/>
<path d="M254.923 263C285.284 263 309.897 259.164 309.897 254.433C309.897 249.701 285.284 245.865 254.923 245.865C224.561 245.865 199.948 249.701 199.948 254.433C199.948 259.164 224.561 263 254.923 263Z" fill="#F2F2F2"/>
<path d="M263.847 259.787C294.209 259.787 318.822 255.951 318.822 251.22C318.822 246.488 294.209 242.652 263.847 242.652C233.486 242.652 208.873 246.488 208.873 251.22C208.873 255.951 233.486 259.787 263.847 259.787Z" stroke="#3F3D56" stroke-miterlimit="10"/>
<path d="M287.225 162.583C288.032 162.877 288.896 162.978 289.749 162.881C290.602 162.783 291.42 162.489 292.14 162.021C292.86 161.553 293.461 160.925 293.897 160.185C294.332 159.445 294.59 158.614 294.649 157.757C294.708 156.901 294.568 156.042 294.239 155.249C293.91 154.456 293.402 153.751 292.753 153.188C292.105 152.625 291.335 152.22 290.504 152.006C289.673 151.791 288.803 151.773 287.963 151.952L288.102 154.805L286.752 152.36C285.427 152.982 284.404 154.105 283.906 155.482C283.73 155.964 283.623 156.469 283.588 156.982C283.502 158.184 283.811 159.381 284.468 160.392C285.124 161.403 286.092 162.172 287.225 162.583Z" fill="#57B894"/>
<path d="M293.904 195.675C293.428 193.249 295.493 191.098 297.532 189.699C299.572 188.301 301.955 186.927 302.651 184.554C303.651 181.144 300.672 178.021 298.353 175.328C296.633 173.329 295.156 171.133 293.952 168.787C293.429 167.865 293.073 166.858 292.899 165.813C292.717 164.301 293.202 162.797 293.692 161.355C295.321 156.552 297.064 151.788 298.92 147.065" stroke="#3F3D56" stroke-miterlimit="10"/>
<path d="M287.453 161.849C288.26 162.142 289.124 162.244 289.977 162.147C290.83 162.049 291.649 161.755 292.368 161.287C293.088 160.819 293.689 160.19 294.125 159.45C294.56 158.71 294.818 157.88 294.877 157.023C294.937 156.167 294.797 155.308 294.468 154.515C294.139 153.722 293.63 153.016 292.982 152.453C292.334 151.891 291.563 151.486 290.732 151.271C289.901 151.057 289.031 151.039 288.192 151.218L288.33 154.071L286.98 151.625C285.656 152.248 284.632 153.371 284.135 154.748C283.958 155.23 283.851 155.735 283.816 156.247C283.731 157.449 284.04 158.647 284.696 159.658C285.352 160.668 286.32 161.438 287.453 161.849V161.849Z" stroke="#3F3D56" stroke-miterlimit="10"/>
<path d="M293.227 146.08C293.543 145.207 294.075 144.427 294.772 143.812C295.469 143.198 296.31 142.769 297.217 142.565L297.673 145.277L298.519 142.429C299.694 142.446 300.833 142.836 301.772 143.543C302.71 144.25 303.4 145.237 303.741 146.362C304.082 147.486 304.057 148.69 303.67 149.799C303.282 150.908 302.552 151.866 301.585 152.533C300.618 153.2 299.463 153.543 298.289 153.511C297.114 153.48 295.98 153.076 295.05 152.358C294.12 151.64 293.442 150.645 293.114 149.517C292.787 148.388 292.826 147.185 293.227 146.08H293.227Z" fill="#57B894"/>
<path d="M293.531 145.101C293.848 144.227 294.379 143.447 295.077 142.833C295.774 142.219 296.614 141.79 297.521 141.586L297.977 144.298L298.824 141.449C299.999 141.467 301.138 141.857 302.076 142.564C303.015 143.271 303.704 144.258 304.045 145.382C304.387 146.507 304.362 147.71 303.974 148.82C303.586 149.929 302.856 150.886 301.889 151.553C300.922 152.221 299.768 152.563 298.593 152.532C297.419 152.501 296.284 152.097 295.354 151.379C294.424 150.66 293.746 149.665 293.419 148.537C293.091 147.409 293.13 146.205 293.531 145.101V145.101Z" stroke="#3F3D56" stroke-miterlimit="10"/>
<path d="M297.38 175.383C298.66 175.847 300.065 175.824 301.329 175.318C302.593 174.813 303.626 173.86 304.233 172.641C304.839 171.422 304.976 170.023 304.617 168.71C304.258 167.397 303.428 166.262 302.286 165.522L301.636 167.711L301.175 164.967C301.17 164.964 301.165 164.963 301.161 164.961C300.476 164.713 299.75 164.602 299.023 164.634C298.295 164.667 297.582 164.842 296.922 165.151C296.263 165.459 295.671 165.894 295.18 166.431C294.688 166.969 294.308 167.597 294.06 168.282C293.811 168.966 293.7 169.692 293.733 170.42C293.765 171.147 293.941 171.86 294.249 172.52C294.558 173.179 294.993 173.771 295.53 174.263C296.067 174.754 296.696 175.134 297.38 175.383Z" fill="#57B894"/>
<path d="M297.644 174.39C298.923 174.855 300.329 174.832 301.593 174.326C302.857 173.82 303.89 172.868 304.496 171.649C305.103 170.43 305.239 169.031 304.88 167.718C304.521 166.405 303.692 165.27 302.55 164.53L301.9 166.719L301.438 163.974C301.434 163.972 301.429 163.97 301.424 163.969C300.042 163.468 298.518 163.536 297.186 164.159C295.854 164.781 294.825 165.907 294.323 167.289C293.822 168.671 293.89 170.196 294.513 171.528C295.136 172.859 296.262 173.889 297.644 174.39V174.39Z" stroke="#3F3D56" stroke-miterlimit="10"/>
<path d="M291.609 184.588C291.829 185.84 292.473 186.978 293.432 187.812C294.392 188.645 295.609 189.124 296.879 189.167C298.15 189.209 299.396 188.814 300.41 188.047C301.423 187.28 302.142 186.187 302.446 184.953C302.75 183.719 302.62 182.418 302.078 181.268C301.536 180.118 300.616 179.189 299.47 178.638C298.325 178.086 297.025 177.945 295.788 178.238C294.552 178.531 293.453 179.241 292.677 180.247L295.147 183.965L291.772 181.992C291.511 182.832 291.455 183.722 291.609 184.588Z" fill="#57B894"/>
<path d="M291.837 183.854C292.057 185.106 292.701 186.244 293.661 187.077C294.62 187.911 295.837 188.389 297.108 188.432C298.378 188.475 299.625 188.08 300.638 187.312C301.651 186.545 302.37 185.453 302.674 184.219C302.978 182.985 302.848 181.683 302.306 180.534C301.764 179.384 300.844 178.455 299.699 177.903C298.554 177.352 297.254 177.211 296.017 177.504C294.78 177.797 293.681 178.506 292.906 179.513L295.375 183.23L292.001 181.257C291.739 182.097 291.683 182.988 291.837 183.854V183.854Z" stroke="#3F3D56" stroke-miterlimit="10"/>
<path d="M286.208 198.962C286.208 198.962 291.1 197.045 292.574 195.996C294.048 194.946 300.098 193.692 300.464 195.376C300.83 197.059 307.815 203.749 302.293 203.794C296.77 203.838 289.461 204.7 287.989 203.804C286.518 202.907 286.208 198.962 286.208 198.962Z" fill="#656380"/>
<path opacity="0.2" d="M302.391 203.208C296.869 203.252 289.559 204.114 288.088 203.218C286.967 202.535 286.521 200.086 286.371 198.956C286.268 198.961 286.208 198.962 286.208 198.962C286.208 198.962 286.518 202.908 287.989 203.804C289.461 204.7 296.77 203.839 302.293 203.794C303.887 203.781 304.438 203.214 304.407 202.374C304.186 202.881 303.578 203.198 302.391 203.208Z" fill="black"/>
<path d="M73.9474 147.43H60.9896C58.6532 147.43 56.7592 149.324 56.7592 151.66V199.601C56.7592 201.937 58.6532 203.831 60.9896 203.831H73.9474C76.2838 203.831 78.1778 201.937 78.1778 199.601V151.66C78.1778 149.324 76.2838 147.43 73.9474 147.43Z" fill="#F33C3C"/>
<path d="M114.643 113.518H101.685C99.3485 113.518 97.4545 115.412 97.4545 117.748V199.601C97.4545 201.938 99.3485 203.832 101.685 203.832H114.643C116.979 203.832 118.873 201.938 118.873 199.601V117.748C118.873 115.412 116.979 113.518 114.643 113.518Z" fill="#F33C3C"/>
<path d="M155.338 89.957H142.38C140.044 89.957 138.15 91.851 138.15 94.1874V199.601C138.15 201.937 140.044 203.831 142.38 203.831H155.338C157.674 203.831 159.568 201.937 159.568 199.601V94.1874C159.568 91.851 157.674 89.957 155.338 89.957Z" fill="#F33C3C"/>
<path d="M196.033 67.4678H183.075C180.739 67.4678 178.845 69.3618 178.845 71.6981V199.601C178.845 201.938 180.739 203.832 183.075 203.832H196.033C198.37 203.832 200.264 201.938 200.264 199.601V71.6981C200.264 69.3618 198.37 67.4678 196.033 67.4678Z" fill="#F33C3C"/>
<path d="M236.729 28.2012H223.771C221.434 28.2012 219.54 30.0951 219.54 32.4315V199.602C219.54 201.938 221.434 203.832 223.771 203.832H236.729C239.065 203.832 240.959 201.938 240.959 199.602V32.4315C240.959 30.0951 239.065 28.2012 236.729 28.2012Z" fill="#F33C3C"/>
<path d="M76.8032 144.574H63.8454C61.509 144.574 59.615 146.468 59.615 148.805V196.746C59.615 199.082 61.509 200.976 63.8454 200.976H76.8032C79.1396 200.976 81.0336 199.082 81.0336 196.746V148.805C81.0336 146.468 79.1396 144.574 76.8032 144.574Z" stroke="#3F3D56" stroke-miterlimit="10"/>
<path d="M117.499 110.662H104.541C102.204 110.662 100.31 112.556 100.31 114.892V196.746C100.31 199.082 102.204 200.976 104.541 200.976H117.499C119.835 200.976 121.729 199.082 121.729 196.746V114.892C121.729 112.556 119.835 110.662 117.499 110.662Z" stroke="#3F3D56" stroke-miterlimit="10"/>
<path d="M158.194 87.1016H145.236C142.9 87.1016 141.006 88.9955 141.006 91.3319V196.746C141.006 199.082 142.9 200.976 145.236 200.976H158.194C160.53 200.976 162.424 199.082 162.424 196.746V91.3319C162.424 88.9955 160.53 87.1016 158.194 87.1016Z" stroke="#3F3D56" stroke-miterlimit="10"/>
<path d="M198.889 64.6123H185.931C183.595 64.6123 181.701 66.5063 181.701 68.8426V196.746C181.701 199.082 183.595 200.976 185.931 200.976H198.889C201.225 200.976 203.119 199.082 203.119 196.746V68.8426C203.119 66.5063 201.225 64.6123 198.889 64.6123Z" stroke="#3F3D56" stroke-miterlimit="10"/>
<path d="M239.584 25.3447H226.627C224.29 25.3447 222.396 27.2387 222.396 29.575V196.745C222.396 199.082 224.29 200.976 226.627 200.976H239.584C241.921 200.976 243.815 199.082 243.815 196.745V29.575C243.815 27.2387 241.921 25.3447 239.584 25.3447Z" stroke="#3F3D56" stroke-miterlimit="10"/>
<path d="M307.356 204.01H0" stroke="#3F3D56" stroke-miterlimit="10"/>
<path d="M287.974 169.768C287.974 169.768 291.333 181.862 287.078 183.653C282.823 185.445 284.166 170.215 284.166 170.215L287.974 169.768Z" fill="#A0616A"/>
<path d="M257.515 247.259C257.515 247.259 254.379 247.035 253.26 247.707C252.924 247.903 252.551 248.024 252.164 248.063C251.778 248.102 251.387 248.056 251.02 247.931C251.02 247.931 246.093 247.483 247.884 249.946C249.676 252.41 251.468 253.306 251.468 254.425C251.468 255.545 258.859 255.545 259.083 254.425C259.307 253.306 259.53 247.483 259.083 247.259C258.635 247.035 257.515 247.259 257.515 247.259Z" fill="#575A89"/>
<path d="M265.801 247.259C265.801 247.259 268.937 247.035 270.057 247.707C270.392 247.903 270.766 248.024 271.152 248.063C271.539 248.102 271.929 248.056 272.296 247.931C272.296 247.931 277.224 247.483 275.432 249.946C273.64 252.41 271.848 253.306 271.848 254.425C271.848 255.545 264.458 255.545 264.234 254.425C264.01 253.306 263.786 247.483 264.234 247.259C264.682 247.035 265.801 247.259 265.801 247.259Z" fill="#575A89"/>
<path d="M248.332 167.305C248.332 167.305 246.765 202.691 247.66 204.482C248.556 206.274 251.692 236.509 251.244 238.301C250.796 240.092 248.556 247.483 251.244 248.603C253.931 249.723 259.754 248.603 259.754 248.603C259.754 248.603 261.322 239.644 260.65 234.941C259.978 230.238 259.754 210.529 259.754 210.529L264.234 189.925L265.801 209.41C265.801 209.41 266.249 236.061 263.114 241.436C259.978 246.811 264.234 249.051 264.234 249.051C264.234 249.051 272.744 250.171 273.64 249.947C274.536 249.723 272.968 240.988 273.64 237.181C274.312 233.373 275.88 212.097 277.224 206.946C278.567 201.795 286.182 173.128 280.583 167.305C274.984 161.482 248.332 167.305 248.332 167.305Z" fill="#3F3D56"/>
<path d="M264.682 95.8609C269.011 95.8609 272.52 92.3514 272.52 88.0222C272.52 83.6931 269.011 80.1836 264.682 80.1836C260.352 80.1836 256.843 83.6931 256.843 88.0222C256.843 92.3514 260.352 95.8609 264.682 95.8609Z" fill="#A0616A"/>
<path d="M258.859 91.6055C258.859 91.6055 260.202 102.356 259.53 102.58C258.859 102.804 271.401 102.58 271.401 102.58C271.401 102.58 268.937 96.0847 271.401 90.9336L258.859 91.6055Z" fill="#A0616A"/>
<path d="M258.859 100.34C258.859 100.34 264.317 94.965 270.77 100.34L271.188 101.942L267.817 101.908H258.859V100.34Z" fill="#F2F2F2"/>
<path d="M285.51 169.096C284.993 169.199 283.725 169.409 282.072 169.66C276.57 170.491 266.818 171.749 266.473 170.887C266.025 169.767 264.458 165.736 263.338 167.528C262.218 169.319 262.89 170.887 258.187 171.111C254.986 171.263 250.334 170.793 247.759 170.054C246.55 169.707 245.797 169.302 245.869 168.872C246.093 167.528 248.556 141.996 248.556 139.533C248.556 137.069 249.452 125.199 249.452 125.199L243.015 112.534L242.509 111.537C242.509 111.537 243.181 109.074 245.197 108.626C247.212 108.178 256.843 102.579 256.843 102.579C256.843 102.579 258.859 99.4435 262.666 99.6674C266.473 99.8914 267.369 98.3237 272.52 102.579C272.52 102.579 278.791 105.266 281.031 106.61C283.271 107.954 285.734 107.954 285.958 110.194C286.003 110.644 285.759 111.511 285.34 112.606C283.806 116.619 279.929 123.721 279.322 124.827C279.268 124.924 279.239 124.975 279.239 124.975C279.239 124.975 279.123 129.002 279.246 133.716V133.728C279.367 138.249 279.707 143.403 280.583 146.251C282.375 152.074 287.75 168.648 285.51 169.096Z" fill="#575A89"/>
<path d="M274.858 84.8044C274.701 84.0908 274.399 83.417 273.972 82.8247C273.801 81.1867 273.255 79.6102 272.375 78.2181C272.03 77.5657 271.541 77.0009 270.945 76.5669C270.261 76.1735 269.482 75.9791 268.694 76.0058C268.551 76.0034 268.294 76.0467 268.063 76.0573C267.914 76.0114 267.765 75.9705 267.615 75.932C267.528 75.7376 267.355 75.1707 267.306 75.2091L266.653 75.728C266.377 75.6801 266.099 75.6427 265.821 75.6131C265.719 75.3238 265.618 75.0344 265.517 74.7451C265.352 75.0039 265.208 75.275 265.085 75.5561C264.808 75.5425 264.53 75.5377 264.253 75.5418L263.697 75.0086C263.665 75.1573 263.589 75.2932 263.481 75.3997C263.372 75.5063 263.234 75.5788 263.085 75.6084C262.83 75.6346 262.575 75.6688 262.322 75.7096C262.301 75.7095 262.28 75.7096 262.26 75.7091C260.893 75.675 259.422 75.6137 258.279 76.3642C257.744 76.7315 257.309 77.2257 257.012 77.8026C256.872 77.8977 256.731 77.9921 256.595 78.093C256.137 78.4057 255.739 78.7997 255.423 79.2554C255.192 79.6485 255.018 80.0716 254.904 80.5126C254.468 81.84 254.265 83.2332 254.307 84.6298C254.353 86.036 254.884 87.3829 255.809 88.4433C256.395 89.0732 257.14 89.5383 257.727 90.1675C258.936 91.463 259.163 93.2699 260.197 94.6406C261.29 96.0905 263.286 97.0446 265.039 97.318C266.093 97.4768 267.168 97.4258 268.202 97.1679C269.236 96.91 270.209 96.4503 271.065 95.8152C271.476 95.5291 271.825 95.1633 272.091 94.7395C272.699 93.6871 272.442 92.3644 272.667 91.1701C273.091 88.9313 275.227 87.0526 274.858 84.8044Z" fill="#3F3D56"/>
<path d="M244.973 170.439C244.973 170.439 248.332 182.533 244.077 184.325C239.822 186.117 241.165 170.887 241.165 170.887L244.973 170.439Z" fill="#A0616A"/>
<path opacity="0.1" d="M249.002 142.996C249.002 142.996 247.533 164.801 247.759 170.055C246.55 169.708 245.797 169.302 245.869 168.872C246.093 167.528 248.556 141.997 248.556 139.533C248.556 137.07 249.452 125.2 249.452 125.2L243.015 112.535C243.118 111.908 243.181 111.538 243.181 111.538L246.429 118.369L251.02 119.601L249.002 142.996Z" fill="black"/>
<path d="M244.077 110.194L242.509 111.538C242.509 111.538 240.494 123.408 240.718 126.32C240.941 129.231 236.014 173.352 239.822 173.352C243.629 173.352 247.884 172.68 247.212 171.112C246.541 169.544 248.331 142.996 248.331 142.996L250.348 119.601L244.077 110.194Z" fill="#575A89"/>
<path opacity="0.1" d="M285.34 112.606C283.806 116.62 279.929 123.722 279.322 124.828C279.34 121.964 279.351 119.937 279.351 119.937L284.054 110.306L285.062 109.522C285.062 109.522 285.17 110.707 285.34 112.606Z" fill="black"/>
<path opacity="0.1" d="M285.51 169.097C284.993 169.2 283.725 169.41 282.072 169.661C281.215 163.318 278.921 145.079 279.067 143.361C279.138 142.515 279.199 138.331 279.246 133.729C279.367 138.25 279.707 143.404 280.583 146.252C282.375 152.075 287.75 168.649 285.51 169.097Z" fill="black"/>
<path d="M282.599 108.626L285.958 109.522C285.958 109.522 288.198 134.382 288.422 138.637C288.646 142.892 291.333 169.096 290.885 170.215C290.437 171.335 283.495 172.903 283.271 171.783C283.047 170.663 279.791 145.395 279.963 143.36C280.135 141.324 279.015 120.272 279.015 120.272L282.599 108.626Z" fill="#575A89"/>
<path d="M70.1458 122.978L110.841 89.0651L151.893 65.8618L192.589 43.3725L233.284 4.10547" stroke="#3F3D56" stroke-miterlimit="10"/>
<path d="M69.0749 128.688C71.2436 128.688 73.0016 126.93 73.0016 124.762C73.0016 122.593 71.2436 120.835 69.0749 120.835C66.9062 120.835 65.1481 122.593 65.1481 124.762C65.1481 126.93 66.9062 128.688 69.0749 128.688Z" fill="#F2F2F2"/>
<path d="M109.77 94.7763C111.939 94.7763 113.697 93.0182 113.697 90.8496C113.697 88.6809 111.939 86.9229 109.77 86.9229C107.601 86.9229 105.843 88.6809 105.843 90.8496C105.843 93.0182 107.601 94.7763 109.77 94.7763Z" fill="#F2F2F2"/>
<path d="M150.822 71.5731C152.991 71.5731 154.749 69.8151 154.749 67.6464C154.749 65.4778 152.991 63.7197 150.822 63.7197C148.654 63.7197 146.896 65.4778 146.896 67.6464C146.896 69.8151 148.654 71.5731 150.822 71.5731Z" fill="#F2F2F2"/>
<path d="M191.518 49.0839C193.686 49.0839 195.444 47.3258 195.444 45.1572C195.444 42.9885 193.686 41.2305 191.518 41.2305C189.349 41.2305 187.591 42.9885 187.591 45.1572C187.591 47.3258 189.349 49.0839 191.518 49.0839Z" fill="#F2F2F2"/>
<path d="M232.213 9.8163C234.382 9.8163 236.14 8.05825 236.14 5.8896C236.14 3.72094 234.382 1.96289 232.213 1.96289C230.044 1.96289 228.286 3.72094 228.286 5.8896C228.286 8.05825 230.044 9.8163 232.213 9.8163Z" fill="#F2F2F2"/>
<path d="M70.1458 126.904C72.3145 126.904 74.0726 125.146 74.0726 122.977C74.0726 120.809 72.3145 119.051 70.1458 119.051C67.9771 119.051 66.2191 120.809 66.2191 122.977C66.2191 125.146 67.9771 126.904 70.1458 126.904Z" stroke="#3F3D56" stroke-miterlimit="10"/>
<path d="M110.841 92.9911C113.01 92.9911 114.768 91.2331 114.768 89.0644C114.768 86.8957 113.01 85.1377 110.841 85.1377C108.672 85.1377 106.914 86.8957 106.914 89.0644C106.914 91.2331 108.672 92.9911 110.841 92.9911Z" stroke="#3F3D56" stroke-miterlimit="10"/>
<path d="M151.893 69.788C154.062 69.788 155.82 68.0299 155.82 65.8613C155.82 63.6926 154.062 61.9346 151.893 61.9346C149.725 61.9346 147.967 63.6926 147.967 65.8613C147.967 68.0299 149.725 69.788 151.893 69.788Z" stroke="#3F3D56" stroke-miterlimit="10"/>
<path d="M192.589 47.2987C194.757 47.2987 196.515 45.5407 196.515 43.372C196.515 41.2034 194.757 39.4453 192.589 39.4453C190.42 39.4453 188.662 41.2034 188.662 43.372C188.662 45.5407 190.42 47.2987 192.589 47.2987Z" stroke="#3F3D56" stroke-miterlimit="10"/>
<path d="M233.284 8.03212C235.453 8.03212 237.211 6.27408 237.211 4.10542C237.211 1.93676 235.453 0.178711 233.284 0.178711C231.115 0.178711 229.357 1.93676 229.357 4.10542C229.357 6.27408 231.115 8.03212 233.284 8.03212Z" stroke="#3F3D56" stroke-miterlimit="10"/>
</g>
<defs>
<clipPath id="clip0">
<rect width="319" height="263" fill="white"/>
</clipPath>
</defs>
</svg>
