<svg width="345" height="250" viewBox="0 0 345 250" fill="none" xmlns="http://www.w3.org/2000/svg">
<g clip-path="url(#clip0)">
<path opacity="0.1" d="M322.083 119.473C322.274 117.286 322.374 115.063 322.374 112.819C322.374 77.6649 298.477 49.1653 269 49.1653C259.614 49.1653 250.766 52.0725 243.108 57.1599C222.243 41.0092 195.003 31.251 165.202 31.251C116.711 31.251 75.0003 57.1147 56.4946 94.2064C55.4686 94.1354 54.433 94.0966 53.3876 94.0966C23.8943 94.0966 0 122.593 0 157.747C0 170.667 3.2364 182.693 8.78358 192.732C8.78358 224.359 34.1731 250.006 65.4917 250.006H104.976L105.151 249.705C107.471 245.946 113.028 245.006 116.899 247.141C117.921 247.703 118.873 248.433 120.015 248.691C124.588 249.66 127.66 242.318 132.288 243.032C134.611 243.391 136.424 245.787 138.761 245.542C140.311 245.377 141.486 244.082 142.942 243.533C145.275 242.648 147.641 243.875 149.276 245.868C150.224 243.145 150.217 239.918 151.751 237.421C154.072 233.661 159.629 232.721 163.5 234.856C164.522 235.419 165.474 236.149 166.616 236.407C171.189 237.376 174.261 230.034 178.889 230.748C181.212 231.106 183.025 233.503 185.361 233.258C186.912 233.093 188.086 231.798 189.543 231.248C193.174 229.869 196.893 233.613 197.786 237.386C198.132 239.048 198.315 240.74 198.333 242.438C201.466 240.923 204.113 236.662 207.689 237.215C210.013 237.573 211.825 239.97 214.162 239.724C215.712 239.56 216.887 238.264 218.344 237.715C221.975 236.336 225.693 240.08 226.587 243.852C227.062 245.855 227.095 247.935 227.176 249.99H292.599C317.196 249.99 337.126 229.859 337.126 205.026C342.116 195.336 345 183.94 345 171.736C345 150.094 335.938 130.972 322.083 119.473Z" fill="white"/>
<path d="M201.627 85.9212C217.178 85.9212 229.784 73.3395 229.784 57.819C229.784 42.2986 217.178 29.7168 201.627 29.7168C186.077 29.7168 173.471 42.2986 173.471 57.819C173.471 73.3395 186.077 85.9212 201.627 85.9212Z" fill="#F33C3C"/>
<path d="M192.562 58.8784L201.582 49.876L210.693 58.8784H204.502V65.7618H198.754V58.9236L192.562 58.8784Z" fill="white"/>
<path d="M238.69 129.594C238.309 127.634 237.327 125.842 235.878 124.465C234.43 123.089 232.588 122.196 230.609 121.912C228.63 121.628 226.611 121.966 224.832 122.88C223.054 123.793 221.605 125.237 220.686 127.009C218.727 127.222 216.923 128.177 215.647 129.677C214.371 131.177 213.719 133.108 213.826 135.072C213.933 137.037 214.791 138.886 216.222 140.239C217.653 141.592 219.55 142.346 221.521 142.346H238.241C239.942 142.341 241.572 141.665 242.776 140.466C243.981 139.267 244.662 137.642 244.671 135.944C244.677 134.323 244.061 132.761 242.948 131.58C241.836 130.399 240.312 129.688 238.69 129.594ZM231.295 133.379V138.244H227.195V133.366H222.809L229.24 126.948L235.668 133.366L231.295 133.379Z" fill="white"/>
<path d="M287.884 209.378C287.503 207.418 286.52 205.626 285.072 204.249C283.624 202.873 281.782 201.981 279.802 201.696C277.823 201.412 275.804 201.751 274.026 202.664C272.248 203.577 270.799 205.021 269.88 206.794C267.92 207.007 266.116 207.961 264.84 209.461C263.564 210.961 262.913 212.892 263.02 214.857C263.127 216.821 263.984 218.67 265.415 220.023C266.847 221.376 268.743 222.13 270.715 222.13H287.434C289.135 222.125 290.765 221.45 291.97 220.251C293.174 219.051 293.855 217.426 293.865 215.728C293.871 214.107 293.254 212.545 292.142 211.364C291.029 210.183 289.505 209.472 287.884 209.378ZM280.489 213.163V218.028H276.388V213.151H272.003L278.434 206.732L284.861 213.151L280.489 213.163Z" fill="white"/>
<path d="M106.623 151.81C106.029 148.784 104.506 146.017 102.265 143.894C100.024 141.771 97.1772 140.396 94.1185 139.96C91.0597 139.524 87.9408 140.049 85.1943 141.461C82.4477 142.874 80.2096 145.104 78.7903 147.844C75.763 148.176 72.9781 149.652 71.0081 151.97C69.038 154.288 68.0326 157.271 68.1983 160.307C68.3641 163.342 69.6885 166.198 71.8993 168.289C74.1101 170.379 77.0393 171.545 80.0848 171.546H105.927C108.561 171.538 111.084 170.49 112.946 168.63C114.808 166.771 115.856 164.252 115.863 161.623C115.872 159.119 114.919 156.706 113.2 154.881C111.482 153.056 109.128 151.957 106.623 151.81ZM95.1956 157.657V165.196H88.836V157.657H82.0784L92.0174 147.74L101.947 157.657H95.1956Z" fill="white"/>
<path d="M217.809 177.652V169.803L221.434 173.42L222.34 172.484L217.162 167.315L211.984 172.484L212.89 173.388L216.515 169.803V177.652H217.809Z" fill="white"/>
<path d="M36.8949 188.31V180.461L40.5196 184.079L41.4258 183.142L36.2476 177.974L31.0693 183.142L31.9755 184.046L35.6003 180.461V188.31H36.8949Z" fill="white"/>
<path d="M217.486 103.681V97.7993L220.204 100.513L220.884 99.8117L217 95.9355L213.117 99.8117L213.796 100.49L216.515 97.7993V103.681H217.486Z" fill="white"/>
<path d="M146.608 61.0437V55.1616L149.327 57.875L150.007 57.174L146.123 53.2979L142.239 57.174L142.919 57.8524L145.637 55.1616V61.0437H146.608Z" fill="white"/>
<path d="M120.07 119.185V113.303L122.789 116.017L123.469 115.316L119.585 111.439L115.701 115.316L116.381 115.994L119.099 113.303V119.185H120.07Z" fill="white"/>
<path d="M286.421 146.319V140.437L289.14 143.15L289.82 142.449L285.936 138.573L282.052 142.449L282.732 143.128L285.45 140.437V146.319H286.421Z" fill="white"/>
<path d="M114.245 198.324V192.442L116.964 195.155L117.643 194.454L113.76 190.578L109.876 194.454L110.556 195.133L113.274 192.442V198.324H114.245Z" fill="white"/>
<path d="M255.352 96.5812C256.424 96.5812 257.294 95.7135 257.294 94.6432C257.294 93.5728 256.424 92.7051 255.352 92.7051C254.28 92.7051 253.41 93.5728 253.41 94.6432C253.41 95.7135 254.28 96.5812 255.352 96.5812Z" fill="white"/>
<path d="M72.4955 91.4133C73.568 91.4133 74.4374 90.5456 74.4374 89.4752C74.4374 88.4048 73.568 87.5371 72.4955 87.5371C71.4231 87.5371 70.5537 88.4048 70.5537 89.4752C70.5537 90.5456 71.4231 91.4133 72.4955 91.4133Z" fill="white"/>
<path d="M129.78 140.511C130.852 140.511 131.722 139.643 131.722 138.573C131.722 137.502 130.852 136.635 129.78 136.635C128.707 136.635 127.838 137.502 127.838 138.573C127.838 139.643 128.707 140.511 129.78 140.511Z" fill="white"/>
<path d="M299.367 172.489C299.903 172.489 300.338 172.055 300.338 171.52C300.338 170.985 299.903 170.551 299.367 170.551C298.831 170.551 298.396 170.985 298.396 171.52C298.396 172.055 298.831 172.489 299.367 172.489Z" fill="white"/>
<path d="M226.548 199.299C227.084 199.299 227.519 198.866 227.519 198.33C227.519 197.795 227.084 197.361 226.548 197.361C226.012 197.361 225.577 197.795 225.577 198.33C225.577 198.866 226.012 199.299 226.548 199.299Z" fill="white"/>
<path d="M101.947 221.911C102.483 221.911 102.917 221.477 102.917 220.942C102.917 220.407 102.483 219.973 101.947 219.973C101.41 219.973 100.976 220.407 100.976 220.942C100.976 221.477 101.41 221.911 101.947 221.911Z" fill="white"/>
<path d="M31.0696 143.419C31.6058 143.419 32.0405 142.985 32.0405 142.45C32.0405 141.914 31.6058 141.48 31.0696 141.48C30.5333 141.48 30.0986 141.914 30.0986 142.45C30.0986 142.985 30.5333 143.419 31.0696 143.419Z" fill="white"/>
<path d="M40.4548 122.745C40.991 122.745 41.4257 122.311 41.4257 121.776C41.4257 121.24 40.991 120.807 40.4548 120.807C39.9186 120.807 39.4839 121.24 39.4839 121.776C39.4839 122.311 39.9186 122.745 40.4548 122.745Z" fill="white"/>
<path d="M249.202 231.278C249.739 231.278 250.173 230.844 250.173 230.309C250.173 229.774 249.739 229.34 249.202 229.34C248.666 229.34 248.231 229.774 248.231 230.309C248.231 230.844 248.666 231.278 249.202 231.278Z" fill="white"/>
<path d="M69.5827 197.685C70.119 197.685 70.5536 197.251 70.5536 196.716C70.5536 196.181 70.119 195.747 69.5827 195.747C69.0465 195.747 68.6118 196.181 68.6118 196.716C68.6118 197.251 69.0465 197.685 69.5827 197.685Z" fill="white"/>
<path d="M91.9138 108.856C92.45 108.856 92.8847 108.422 92.8847 107.887C92.8847 107.352 92.45 106.918 91.9138 106.918C91.3776 106.918 90.9429 107.352 90.9429 107.887C90.9429 108.422 91.3776 108.856 91.9138 108.856Z" fill="white"/>
<path d="M125.086 73.4852H120.07V68.4785H119.423V73.4852H114.406V74.1313H119.423V79.138H120.07V74.1313H125.086V73.4852Z" fill="white"/>
<path d="M247.261 165.994H244.222V162.961H243.827V165.994H240.788V166.388H243.827V169.421H244.222V166.388H247.261V165.994Z" fill="white"/>
<path d="M228.813 222.521H225.774V219.488H225.379V222.521H222.34V222.915H225.379V225.949H225.774V222.915H228.813V222.521Z" fill="white"/>
<path d="M77.6735 215.415H74.6345V212.382H74.2397V215.415H71.2007V215.809H74.2397V218.842H74.6345V215.809H77.6735V215.415Z" fill="white"/>
<path d="M56.3131 158.565H53.2741V155.532H52.8793V158.565H49.8403V158.959H52.8793V161.992H53.2741V158.959H56.3131V158.565Z" fill="white"/>
<path d="M146.758 216.316L146.78 214.497L145.686 214.484L145.664 216.303L143.777 221.742L148.515 221.797L146.758 216.316Z" fill="#3F3D56"/>
<path d="M151.512 216.419L151.535 214.555L150.412 214.539L150.389 216.406L148.454 221.984L153.315 222.039L151.512 216.419Z" fill="#3F3D56"/>
<path d="M156.237 216.428L156.26 214.61L155.166 214.597L155.143 216.415L153.256 221.855L157.998 221.91L156.237 216.428Z" fill="#3F3D56"/>
<path d="M190.032 216.878L190.054 215.011L188.931 214.998L188.909 216.865L186.973 222.44L191.834 222.498L190.032 216.878Z" fill="#3F3D56"/>
<path d="M194.892 216.937L194.915 215.07L193.792 215.057L193.769 216.924L191.834 222.499L196.695 222.557L194.892 216.937Z" fill="#3F3D56"/>
<path d="M199.754 216.994L199.776 215.127L198.653 215.114L198.631 216.981L196.695 222.556L201.556 222.615L199.754 216.994Z" fill="#3F3D56"/>
<path d="M167.966 216.616L167.988 214.749L166.865 214.736L166.843 216.603L164.907 222.179L169.768 222.237L167.966 216.616Z" fill="#3F3D56"/>
<path d="M172.826 216.675L172.849 214.808L171.729 214.795L171.707 216.662L169.768 222.237L174.629 222.295L172.826 216.675Z" fill="#3F3D56"/>
<path d="M177.688 216.732L177.711 214.865L176.591 214.853L176.568 216.72L174.63 222.295L179.494 222.353L177.688 216.732Z" fill="#3F3D56"/>
<path d="M164.655 86.1098C164.587 79.6819 157.001 68.2859 152.907 68.2375C148.813 68.189 141.327 79.4041 141.107 85.8288H140.913L139.369 214.973L163.118 215.254L164.662 86.1131L164.655 86.1098Z" fill="#3F3D56"/>
<path d="M208.036 86.6255C207.968 80.1975 200.382 68.8015 196.288 68.7531C192.194 68.7046 184.708 79.9197 184.491 86.3444H184.297L182.753 215.489L206.502 215.77L208.045 86.6287L208.036 86.6255Z" fill="#3F3D56"/>
<path d="M186.695 26.1384C186.659 16.7161 179.134 0.0485587 175.044 0.000106557C170.953 -0.0483456 163.393 16.4383 163.143 25.8412H162.952L160.687 215.205L184.432 215.489L186.698 26.1223L186.695 26.1384Z" fill="#2F2E41"/>
<path d="M164.774 127.729L173.798 118.724L182.905 127.729H176.717V134.613H170.966V127.771L164.774 127.729Z" fill="#F33C3C"/>
<g opacity="0.1">
<path opacity="0.1" d="M186.051 88.803C188.507 83.0825 193.304 77.1164 196.287 77.1519C200.171 77.1971 207.168 87.4205 207.961 93.9486L208.045 86.936C207.977 80.508 200.391 69.1121 196.297 69.0636C193.352 69.0281 188.646 74.8391 186.161 80.4919L186.051 88.803Z" fill="black"/>
<path opacity="0.1" d="M140.916 94.2229H141.11C141.327 87.7982 148.816 76.5831 152.907 76.6316C155.58 76.6639 159.739 81.5317 162.325 86.6967L162.953 34.2521H163.144C163.396 24.8331 170.953 8.34642 175.044 8.41102C178.908 8.45624 185.84 23.3375 186.624 32.9278L186.698 26.4675C186.662 17.0452 179.138 0.37766 175.047 0.329208C170.956 0.280756 163.396 16.7674 163.147 26.1865H162.956L162.328 78.6311C159.739 73.4628 155.583 68.5982 152.91 68.5659C148.819 68.5175 141.33 79.7325 141.113 86.1573H140.919L139.375 215.302H139.473L140.916 94.2229Z" fill="black"/>
</g>
<path d="M175.043 8.20043L175.04 8.20039C173.801 8.18572 172.785 9.17596 172.77 10.4122L172.708 15.6414C172.693 16.8776 173.686 17.8916 174.924 17.9063L174.927 17.9063C176.166 17.921 177.182 16.9308 177.197 15.6946L177.259 10.4653C177.274 9.22913 176.281 8.2151 175.043 8.20043Z" fill="#ECECF3"/>
</g>
<defs>
<clipPath id="clip0">
<rect width="345" height="250" fill="white"/>
</clipPath>
</defs>
</svg>
