<svg version="1.1"
     baseProfile="full"
     xmlns="http://www.w3.org/2000/svg"
>

    <symbol id="hamburger" viewBox="0 0 18 12" fill="none">
        <path d="M0 0H18V2H0V0ZM0 5H18V7H0V5ZM0 10H18V12H0V10Z" fill="white"/>
    </symbol>

    <symbol id="user-placeholder" viewBox="0 0 24 24" fill="none">
        <path d="M12 20.4C9.08337 20.4 6.50504 18.9067 5.00004 16.6667C5.03504 14.3333 9.66671 13.05 12 13.05C14.3334 13.05 18.965 14.3333 19 16.6667C18.2287 17.8151 17.1869 18.7563 15.9662 19.4074C14.7455 20.0584 13.3835 20.3993 12 20.4ZM12 3.83333C12.9283 3.83333 13.8185 4.20208 14.4749 4.85846C15.1313 5.51484 15.5 6.40507 15.5 7.33333C15.5 8.26159 15.1313 9.15183 14.4749 9.80821C13.8185 10.4646 12.9283 10.8333 12 10.8333C11.0718 10.8333 10.1815 10.4646 9.52517 9.80821C8.86879 9.15183 8.50004 8.26159 8.50004 7.33333C8.50004 6.40507 8.86879 5.51484 9.52517 4.85846C10.1815 4.20208 11.0718 3.83333 12 3.83333ZM12 0.333332C10.468 0.333332 8.95087 0.635099 7.5354 1.2214C6.11994 1.80771 4.83381 2.66707 3.75046 3.75042C1.56254 5.93834 0.333374 8.90581 0.333374 12C0.333374 15.0942 1.56254 18.0617 3.75046 20.2496C4.83381 21.3329 6.11994 22.1923 7.5354 22.7786C8.95087 23.3649 10.468 23.6667 12 23.6667C15.0942 23.6667 18.0617 22.4375 20.2496 20.2496C22.4375 18.0617 23.6667 15.0942 23.6667 12C23.6667 5.54833 18.4167 0.333332 12 0.333332Z"
              fill="white"/>
    </symbol>

    <symbol id="toggle" viewBox="0 0 10 5" fill="none">
        <path d="M0 0L5 5L10 0H0Z" fill="white"/>
    </symbol>

    <symbol id="house" viewBox="0 0 20 17" fill="none">
        <path d="M8 17V11H12V17H17V9H20L10 0L0 9H3V17H8Z" fill="#181515"/>
    </symbol>

    <symbol id="calendar" viewBox="0 0 18 20" fill="none">
        <path d="M16 18H2V7H16V18ZM13 0V2H5V0H3V2H2C0.89 2 0 2.89 0 4V18C0 18.5304 0.210714 19.0391 0.585786 19.4142C0.960859 19.7893 1.46957 20 2 20H16C16.5304 20 17.0391 19.7893 17.4142 19.4142C17.7893 19.0391 18 18.5304 18 18V4C18 3.46957 17.7893 2.96086 17.4142 2.58579C17.0391 2.21071 16.5304 2 16 2H15V0H13ZM14 11H9V16H14V11Z"
              fill="#181515"/>
    </symbol>

    <symbol id="blog" viewBox="0 0 22 17" fill="none">
        <path d="M12 8H19V9.5H12V8ZM12 5.5H19V7H12V5.5ZM12 10.5H19V12H12V10.5ZM20 0H2C1.46957 0 0.960859 0.210714 0.585786 0.585786C0.210714 0.960859 0 1.46957 0 2V15C0 15.5304 0.210714 16.0391 0.585786 16.4142C0.960859 16.7893 1.46957 17 2 17H20C20.5304 17 21.0391 16.7893 21.4142 16.4142C21.7893 16.0391 22 15.5304 22 15V2C22 1.46957 21.7893 0.960859 21.4142 0.585786C21.0391 0.210714 20.5304 0 20 0ZM20 15H11V2H20"
              fill="#181515"/>
    </symbol>

    <symbol id="news" viewBox="0 0 20 18" fill="none">
        <path d="M18 2V16H2V2H18ZM18 0H2C0.89 0 0 0.89 0 2V16C0 17.11 0.89 18 2 18H18C19.11 18 20 17.11 20 16V2C20 0.89 19.11 0 18 0ZM16 12H4V14H16V12ZM8 4H4V10H8V4ZM10 6H16V4H10V6ZM16 8H10V10H16V8Z"
              fill="#181515"/>
    </symbol>

    <symbol id="jobs" viewBox="0 0 21 20" fill="none">
        <path d="M13.5 8C16 8 18 10 18 12.5C18 13.38 17.75 14.21 17.31 14.9L20.39 18L19 19.39L15.88 16.32C15.19 16.75 14.37 17 13.5 17C11 17 9 15 9 12.5C9 10 11 8 13.5 8ZM13.5 10C12.837 10 12.2011 10.2634 11.7322 10.7322C11.2634 11.2011 11 11.837 11 12.5C11 13.163 11.2634 13.7989 11.7322 14.2678C12.2011 14.7366 12.837 15 13.5 15C14.163 15 14.7989 14.7366 15.2678 14.2678C15.7366 13.7989 16 13.163 16 12.5C16 11.837 15.7366 11.2011 15.2678 10.7322C14.7989 10.2634 14.163 10 13.5 10ZM8 0C9.06087 0 10.0783 0.421427 10.8284 1.17157C11.5786 1.92172 12 2.93913 12 4C12 4.91 11.69 5.75 11.18 6.43C10.32 6.75 9.55 7.26 8.91 7.9L8 8C6.93913 8 5.92172 7.57857 5.17157 6.82843C4.42143 6.07828 4 5.06087 4 4C4 2.93913 4.42143 1.92172 5.17157 1.17157C5.92172 0.421427 6.93913 0 8 0ZM0 16V14C0 11.88 3.31 10.14 7.5 10C7.18 10.78 7 11.62 7 12.5C7 13.79 7.38 15 8 16H0Z"
              fill="#181515"/>
    </symbol>

    <symbol id="purchases" viewBox="0 0 22 20" fill="none">
        <path d="M4.5 20C3.72 20 3.04 19.55 2.71 18.9L0.1 9.44L0 9C0 8.73478 0.105357 8.48043 0.292893 8.29289C0.48043 8.10535 0.734784 8 1 8H5.58L10.18 1.43C10.2722 1.29587 10.3958 1.18636 10.5401 1.11102C10.6844 1.03568 10.8449 0.996804 11.0076 0.997791C11.1704 0.998777 11.3304 1.03959 11.4738 1.11668C11.6171 1.19376 11.7394 1.30476 11.83 1.44L16.42 8H21C21.2652 8 21.5196 8.10535 21.7071 8.29289C21.8946 8.48043 22 8.73478 22 9L21.96 9.29L19.29 18.9C18.96 19.55 18.28 20 17.5 20H4.5ZM11 3.74L8 8H14L11 3.74ZM11 12C10.4696 12 9.96086 12.2107 9.58579 12.5858C9.21071 12.9609 9 13.4696 9 14C9 14.5304 9.21071 15.0391 9.58579 15.4142C9.96086 15.7893 10.4696 16 11 16C11.5304 16 12.0391 15.7893 12.4142 15.4142C12.7893 15.0391 13 14.5304 13 14C13 13.4696 12.7893 12.9609 12.4142 12.5858C12.0391 12.2107 11.5304 12 11 12Z"
              fill="#181515"/>
    </symbol>

    <symbol id="chevron-right" viewBox="0 0 16 16" fill="none">
        <path d="M0 6.99996V8.99996H12L6.5 14.5L7.92 15.92L15.84 7.99996L7.92 0.0799561L6.5 1.49996L12 6.99996H0Z"
              fill="white"/>
    </symbol>

    <symbol id="calendar-2" viewBox="0 0 18 20" fill="none">
        <path d="M6 9H4V11H6V9ZM10 9H8V11H10V9ZM14 9H12V11H14V9ZM16 2H15V0H13V2H5V0H3V2H2C1.46957 2 0.960859 2.21071 0.585786 2.58579C0.210714 2.96086 0 3.46957 0 4V18C0 18.5304 0.210714 19.0391 0.585786 19.4142C0.960859 19.7893 1.46957 20 2 20H16C16.5304 20 17.0391 19.7893 17.4142 19.4142C17.7893 19.0391 18 18.5304 18 18V4C18 3.46957 17.7893 2.96086 17.4142 2.58579C17.0391 2.21071 16.5304 2 16 2ZM16 18H2V7H16V18Z"
              fill="white"/>
    </symbol>

    <symbol id="chat" viewBox="0 0 18 18" fill="none">
        <path d="M6.50008 17.3333C6.27907 17.3333 6.06711 17.2455 5.91083 17.0892C5.75455 16.933 5.66675 16.721 5.66675 16.5V14H2.33341C1.89139 14 1.46746 13.8244 1.1549 13.5118C0.842343 13.1993 0.666748 12.7754 0.666748 12.3333V2.33332C0.666748 1.8913 0.842343 1.46737 1.1549 1.15481C1.46746 0.842251 1.89139 0.666656 2.33341 0.666656H15.6667C16.1088 0.666656 16.5327 0.842251 16.8453 1.15481C17.1578 1.46737 17.3334 1.8913 17.3334 2.33332V12.3333C17.3334 12.7754 17.1578 13.1993 16.8453 13.5118C16.5327 13.8244 16.1088 14 15.6667 14H10.5834L7.50008 17.0917C7.33342 17.25 7.12508 17.3333 6.91675 17.3333H6.50008ZM13.1667 8.16666V6.49999H11.5001V8.16666H13.1667ZM9.83342 8.16666V6.49999H8.16675V8.16666H9.83342ZM6.50008 8.16666V6.49999H4.83342V8.16666H6.50008Z"
              fill="#181515"/>
    </symbol>

    <symbol id="eye" viewBox="0 0 20 14" fill="none">
        <path d="M9.99992 4.5C9.33688 4.5 8.70099 4.76339 8.23215 5.23223C7.76331 5.70107 7.49992 6.33696 7.49992 7C7.49992 7.66304 7.76331 8.29893 8.23215 8.76777C8.70099 9.23661 9.33688 9.5 9.99992 9.5C10.663 9.5 11.2988 9.23661 11.7677 8.76777C12.2365 8.29893 12.4999 7.66304 12.4999 7C12.4999 6.33696 12.2365 5.70107 11.7677 5.23223C11.2988 4.76339 10.663 4.5 9.99992 4.5ZM9.99992 11.1667C8.89485 11.1667 7.83504 10.7277 7.05364 9.94628C6.27224 9.16488 5.83325 8.10507 5.83325 7C5.83325 5.89493 6.27224 4.83512 7.05364 4.05372C7.83504 3.27232 8.89485 2.83333 9.99992 2.83333C11.105 2.83333 12.1648 3.27232 12.9462 4.05372C13.7276 4.83512 14.1666 5.89493 14.1666 7C14.1666 8.10507 13.7276 9.16488 12.9462 9.94628C12.1648 10.7277 11.105 11.1667 9.99992 11.1667ZM9.99992 0.75C5.83325 0.75 2.27492 3.34167 0.833252 7C2.27492 10.6583 5.83325 13.25 9.99992 13.25C14.1666 13.25 17.7249 10.6583 19.1666 7C17.7249 3.34167 14.1666 0.75 9.99992 0.75Z"
              fill="#181515"/>
    </symbol>

    <symbol id="red-plus" viewBox="0 0 18 18" fill="none">
        <path d="M17.1667 10.1667H10.1667V17.1667H7.83337V10.1667H0.833374V7.83337H7.83337V0.833374H10.1667V7.83337H17.1667V10.1667Z"
              fill="#F33C3C"/>
    </symbol>

    <symbol id="search" viewBox="0 0 18 18" fill="none">
        <path d="M6.5 0C8.22391 0 9.87721 0.684819 11.0962 1.90381C12.3152 3.12279 13 4.77609 13 6.5C13 8.11 12.41 9.59 11.44 10.73L11.71 11H12.5L17.5 16L16 17.5L11 12.5V11.71L10.73 11.44C9.55055 12.4468 8.05071 12.9999 6.5 13C4.77609 13 3.12279 12.3152 1.90381 11.0962C0.684819 9.87721 0 8.22391 0 6.5C0 4.77609 0.684819 3.12279 1.90381 1.90381C3.12279 0.684819 4.77609 0 6.5 0ZM6.5 2C4 2 2 4 2 6.5C2 9 4 11 6.5 11C9 11 11 9 11 6.5C11 4 9 2 6.5 2Z"
              fill="black"/>
    </symbol>

    <symbol id="apartment" viewBox="0 0 17 19" fill="none">
        <path d="M10.19 18C9.12 16.43 8 14.36 8 12.5C8 10.67 8.96 9 10.4 8H10V6H12V7.23C12.5 7.09 13 7 13.5 7C13.67 7 13.84 7 14 7.03V0H0V18H6V14.5H8V18H10.19ZM10 2H12V4H10V2ZM4 16H2V14H4V16ZM4 12H2V10H4V12ZM4 8H2V6H4V8ZM4 4H2V2H4V4ZM6 2H8V4H6V2ZM6 6H8V8H6V6ZM6 12V10H8V12H6ZM13.5 9C11.6 9 10 10.61 10 12.5C10 15.11 13.5 19 13.5 19C13.5 19 17 15.11 17 12.5C17 10.61 15.4 9 13.5 9ZM13.5 13.81C12.8 13.81 12.3 13.21 12.3 12.61C12.3 11.91 12.9 11.41 13.5 11.41C14.1 11.41 14.7 12 14.7 12.61C14.8 13.21 14.2 13.81 13.5 13.81Z"
              fill="black"/>
    </symbol>

    <symbol id="doc-search" viewBox="0 0 21 22" fill="none">
        <path d="M7.18 16H4V14H7C7.08 13.32 7.23 12.64 7.5 12H4V10H8.82C8.85 9.97 8.87 9.94 8.9 9.9C10.1224 8.68426 11.776 8.00126 13.5 8H4V6H14V8H13.5C15.12 8 16.74 8.61 18 9.82V4C18 3.46957 17.7893 2.96086 17.4142 2.58579C17.0391 2.21071 16.5304 2 16 2H11.82C11.4 0.84 10.3 0 9 0C7.7 0 6.6 0.84 6.18 2H2C0.9 2 0 2.9 0 4V18C0 18.5304 0.210714 19.0391 0.585786 19.4142C0.960859 19.7893 1.46957 20 2 20H10.06C9.65 19.74 9.26 19.45 8.9 19.1C8 18.21 7.45 17.13 7.18 16ZM9 2C9.55 2 10 2.45 10 3C10 3.55 9.55 4 9 4C8.45 4 8 3.55 8 3C8 2.45 8.45 2 9 2ZM17.31 16.9C17.75 16.21 18 15.38 18 14.5C18 12 16 10 13.5 10C11 10 9 12 9 14.5C9 17 11 19 13.5 19C14.37 19 15.19 18.75 15.88 18.32L19 21.39L20.39 20L17.31 16.9ZM13.5 17C12.837 17 12.2011 16.7366 11.7322 16.2678C11.2634 15.7989 11 15.163 11 14.5C11 13.837 11.2634 13.2011 11.7322 12.7322C12.2011 12.2634 12.837 12 13.5 12C14.163 12 14.7989 12.2634 15.2678 12.7322C15.7366 13.2011 16 13.837 16 14.5C16 15.163 15.7366 15.7989 15.2678 16.2678C14.7989 16.7366 14.163 17 13.5 17Z"
              fill="black"/>
    </symbol>

    <symbol id="play" viewBox="0 0 20 20" fill="none">
        <path d="M2 4H0V18C0 18.5304 0.210714 19.0391 0.585786 19.4142C0.960859 19.7893 1.46957 20 2 20H16V18H2V4ZM18 0H6C5.46957 0 4.96086 0.210714 4.58579 0.585786C4.21071 0.960859 4 1.46957 4 2V14C4 14.5304 4.21071 15.0391 4.58579 15.4142C4.96086 15.7893 5.46957 16 6 16H18C18.5304 16 19.0391 15.7893 19.4142 15.4142C19.7893 15.0391 20 14.5304 20 14V2C20 1.46957 19.7893 0.960859 19.4142 0.585786C19.0391 0.210714 18.5304 0 18 0ZM10 12.5V3.5L16 8L10 12.5Z"
              fill="black"/>
    </symbol>

    <symbol id="calendar-grey" viewBox="0 0 16 18" fill="none">
        <path d="M5.5 8.33331H3.83333V9.99998H5.5V8.33331ZM8.83333 8.33331H7.16667V9.99998H8.83333V8.33331ZM12.1667 8.33331H10.5V9.99998H12.1667V8.33331ZM13.8333 2.49998H13V0.833313H11.3333V2.49998H4.66667V0.833313H3V2.49998H2.16667C1.72464 2.49998 1.30072 2.67557 0.988155 2.98813C0.675595 3.3007 0.5 3.72462 0.5 4.16665V15.8333C0.5 16.2753 0.675595 16.6993 0.988155 17.0118C1.30072 17.3244 1.72464 17.5 2.16667 17.5H13.8333C14.2754 17.5 14.6993 17.3244 15.0118 17.0118C15.3244 16.6993 15.5 16.2753 15.5 15.8333V4.16665C15.5 3.72462 15.3244 3.3007 15.0118 2.98813C14.6993 2.67557 14.2754 2.49998 13.8333 2.49998ZM13.8333 15.8333H2.16667V6.66665H13.8333V15.8333Z"
              fill="#A3A1A1"/>
    </symbol>

    <symbol id="lamp" viewBox="0 0 130 130" fill="none">
        <path d="M105.625 130H24.375C10.9119 130 0 119.088 0 105.625V24.375C0 10.9119 10.9119 0 24.375 0H105.625C119.088 0 130 10.9119 130 24.375V105.625C130 119.088 119.088 130 105.625 130Z"
              fill="#FFE6E2"/>
        <path d="M65 41.86C63.8788 41.86 62.9688 40.95 62.9688 39.8288V34.5313C62.9688 33.41 63.8788 32.5 65 32.5C66.1212 32.5 67.0312 33.41 67.0312 34.5313V39.8288C67.0312 40.95 66.1212 41.86 65 41.86Z"
              fill="#FD907E"/>
        <path d="M82.7984 49.2325C82.2784 49.2325 81.7584 49.0334 81.3603 48.6394C80.5681 47.8472 80.5681 46.5594 81.3603 45.7672L85.11 42.0175C85.9021 41.2253 87.19 41.2253 87.9821 42.0175C88.7743 42.8097 88.7743 44.0975 87.9821 44.8897L84.2324 48.6394C83.8384 49.0334 83.3184 49.2325 82.7984 49.2325Z"
              fill="#FD907E"/>
        <path d="M95.4694 67.0312H90.1719C89.0506 67.0312 88.1406 66.1212 88.1406 65C88.1406 63.8788 89.0506 62.9688 90.1719 62.9688H95.4694C96.5906 62.9688 97.5006 63.8788 97.5006 65C97.5006 66.1212 96.5906 67.0312 95.4694 67.0312Z"
              fill="#FD907E"/>
        <path d="M86.5432 88.5753C86.0232 88.5753 85.5032 88.3762 85.1051 87.9821L81.3554 84.2324C80.5632 83.4403 80.5632 82.1524 81.3554 81.3603C82.1476 80.5681 83.4354 80.5681 84.2276 81.3603L87.9773 85.11C88.7695 85.9021 88.7695 87.1899 87.9773 87.9821C87.5832 88.3803 87.0632 88.5753 86.5432 88.5753Z"
              fill="#FD907E"/>
        <path d="M43.4571 88.5753C42.9371 88.5753 42.4171 88.3762 42.0189 87.9821C41.2268 87.1899 41.2268 85.9021 42.0189 85.11L45.7686 81.3603C46.5608 80.5681 47.8486 80.5681 48.6408 81.3603C49.433 82.1524 49.433 83.4403 48.6408 84.2324L44.8911 87.9821C44.493 88.3803 43.9771 88.5753 43.4571 88.5753Z"
              fill="#FD907E"/>
        <path d="M39.8288 67.0312H34.5313C33.41 67.0312 32.5 66.1212 32.5 65C32.5 63.8788 33.41 62.9688 34.5313 62.9688H39.8288C40.95 62.9688 41.86 63.8788 41.86 65C41.86 66.1212 40.95 67.0312 39.8288 67.0312Z"
              fill="#FD907E"/>
        <path d="M47.2019 49.2325C46.6819 49.2325 46.1619 49.0334 45.7637 48.6394L42.0141 44.8897C41.2219 44.0975 41.2219 42.8097 42.0141 42.0175C42.8062 41.2253 44.0941 41.2253 44.8862 42.0175L48.6359 45.7672C49.4281 46.5594 49.4281 47.8472 48.6359 48.6394C48.2419 49.0334 47.7219 49.2325 47.2019 49.2325Z"
              fill="#FD907E"/>
        <path d="M73.125 89.375V92.7591C73.125 95.3591 70.9841 97.5 68.3841 97.5H61.6119C59.3409 97.5 56.875 95.7653 56.875 91.975V89.375H73.125Z"
              fill="#FC573B"/>
        <path d="M76.9434 50.2647C72.5031 46.6613 66.6531 45.2557 60.9372 46.4744C53.7587 47.9654 47.9372 53.8153 46.4462 60.9897C44.9309 68.355 47.6934 75.6675 53.5962 80.1363C55.1928 81.3266 56.3059 83.1709 56.6837 85.3078V85.3363C56.7406 85.3119 56.8219 85.3119 56.8747 85.3119H73.1247C73.1775 85.3119 73.2059 85.3119 73.2587 85.3403V85.3119C73.6366 83.2522 74.8553 81.3591 76.724 79.8966C81.3025 76.2688 83.9553 70.8494 83.9553 64.9994C83.9594 59.2591 81.4122 53.8966 76.9434 50.2647ZM75.1559 66.3522C74.0469 66.3522 73.1247 65.43 73.1247 64.321C73.1247 60.2057 69.7934 56.8744 65.6781 56.8744C64.569 56.8744 63.6469 55.9522 63.6469 54.8432C63.6469 53.7341 64.569 52.8119 65.6781 52.8119C72.0156 52.8119 77.1872 57.9835 77.1872 64.321C77.1872 65.4341 76.265 66.3522 75.1559 66.3522Z"
              fill="#FC573B"/>
        <path d="M56.6836 85.3125H56.8745C56.8217 85.3125 56.7405 85.3125 56.6836 85.3409V85.3125Z" fill="black"/>
        <path d="M73.2591 85.3125V85.3409C73.2063 85.3125 73.1778 85.3125 73.125 85.3125H73.2591Z" fill="black"/>
    </symbol>

    <symbol id="group" viewBox="0 0 130 130" fill="none">
        <path d="M105.625 130H24.375C10.9119 130 0 119.088 0 105.625V24.375C0 10.9119 10.9119 0 24.375 0H105.625C119.088 0 130 10.9119 130 24.375V105.625C130 119.088 119.088 130 105.625 130Z"
              fill="#F5E6FE"/>
        <path d="M64.9992 46.0444C68.7394 46.0444 71.7714 43.0124 71.7714 39.2722C71.7714 35.532 68.7394 32.5 64.9992 32.5C61.2591 32.5 58.2271 35.532 58.2271 39.2722C58.2271 43.0124 61.2591 46.0444 64.9992 46.0444Z"
              fill="#BE63F9"/>
        <path d="M83.9597 83.9589C87.6999 83.9589 90.7319 80.9269 90.7319 77.1867C90.7319 73.4466 87.6999 70.4146 83.9597 70.4146C80.2195 70.4146 77.1875 73.4466 77.1875 77.1867C77.1875 80.9269 80.2195 83.9589 83.9597 83.9589Z"
              fill="#BE63F9"/>
        <path d="M46.0403 83.9589C49.7804 83.9589 52.8124 80.9269 52.8124 77.1867C52.8124 73.4466 49.7804 70.4146 46.0403 70.4146C42.3001 70.4146 39.2681 73.4466 39.2681 77.1867C39.2681 80.9269 42.3001 83.9589 46.0403 83.9589Z"
              fill="#BE63F9"/>
        <path d="M76.509 59.5855H53.4868C52.3656 59.5855 51.4556 58.6755 51.4556 57.5543V56.2014C51.4556 52.0943 54.7949 48.7549 58.9021 48.7549H71.0896C75.1968 48.7549 78.5362 52.0943 78.5362 56.2014V57.5543C78.5402 58.6755 77.6302 59.5855 76.509 59.5855Z"
              fill="#BE63F9"/>
        <path d="M95.468 97.5015H72.4458C71.3245 97.5015 70.4146 96.5915 70.4146 95.4703V94.1175C70.4146 90.0103 73.7539 86.6709 77.8611 86.6709H90.0486C94.1558 86.6709 97.4951 90.0103 97.4951 94.1175V95.4703C97.4992 96.5915 96.5892 97.5015 95.468 97.5015Z"
              fill="#BE63F9"/>
        <path d="M57.5534 97.5015H34.5312C33.41 97.5015 32.5 96.5915 32.5 95.4703V94.1175C32.5 90.0103 35.8394 86.6709 39.9466 86.6709H52.134C56.2412 86.6709 59.5806 90.0103 59.5806 94.1175V95.4703C59.5847 96.5915 58.6747 97.5015 57.5534 97.5015Z"
              fill="#BE63F9"/>
        <path d="M39.9458 67.0629C38.8246 67.0629 37.9146 66.1529 37.9146 65.0316C37.9146 54.5341 44.0692 44.8898 53.5877 40.4616C54.6074 39.9904 55.8139 40.4291 56.2852 41.4488C56.7564 42.4645 56.3177 43.6751 55.298 44.1463C47.2014 47.9123 41.973 56.1104 41.973 65.0316C41.977 66.1529 41.0671 67.0629 39.9458 67.0629Z"
              fill="#D9A4FC"/>
        <path d="M90.0529 67.0642C88.9317 67.0642 88.0217 66.1542 88.0217 65.033C88.0217 56.1076 82.7933 47.9095 74.6967 44.1476C73.6811 43.6723 73.2383 42.4658 73.7095 41.4501C74.1848 40.4345 75.3873 39.9917 76.407 40.4629C85.9295 44.8911 92.0801 54.5355 92.0801 65.033C92.0842 66.1542 91.1742 67.0642 90.0529 67.0642Z"
              fill="#D9A4FC"/>
        <path d="M64.9994 92.1173C64.0406 92.1173 63.0981 92.0686 62.1678 91.9711C61.0547 91.8533 60.2422 90.8539 60.36 89.7408C60.4778 88.6277 61.4609 87.8314 62.5903 87.933C64.2194 88.1036 65.9297 88.0955 67.5669 87.9167C68.6719 87.7908 69.6834 88.5992 69.8094 89.7124C69.9312 90.8295 69.1269 91.8289 68.0137 91.9548C67.0225 92.0605 66.0191 92.1173 64.9994 92.1173Z"
              fill="#D9A4FC"/>
    </symbol>

    <symbol id="technology" viewBox="0 0 130 130" fill="none">
        <path d="M105.625 130H24.375C10.9119 130 0 119.088 0 105.625V24.375C0 10.9119 10.9119 0 24.375 0H105.625C119.088 0 130 10.9119 130 24.375V105.625C130 119.088 119.088 130 105.625 130Z"
              fill="#F5E6FE"/>
        <path d="M49.4691 80.5309C39.2844 77.5897 32.5 71.8047 32.5 65C32.5 82.9197 47.0803 97.5 65 97.5C58.1953 97.5 52.4103 90.7156 49.4691 80.5309Z"
              fill="#D9A4FC"/>
        <path d="M81.8799 74.3755C88.2499 71.9705 92.0849 68.3793 92.0849 64.9993C92.0849 61.6233 88.2499 58.0321 81.8799 55.623C82.3471 58.5846 82.6071 61.7208 82.6071 64.9993C82.603 68.2736 82.3471 71.4139 81.8799 74.3755Z"
              fill="#BE63F9"/>
        <path d="M76.0703 76.0703C76.7731 72.7553 77.1875 69.0341 77.1875 65C77.1875 60.9659 76.7731 57.2447 76.0703 53.9297C72.7553 53.2228 69.0341 52.8125 65 52.8125C60.9659 52.8125 57.2447 53.2228 53.9297 53.9297C53.2269 57.2447 52.8125 60.9659 52.8125 65C52.8125 69.0341 53.2269 72.7553 53.9297 76.0703C57.2447 76.7772 60.9659 77.1875 65 77.1875C69.0341 77.1875 72.7553 76.7772 76.0703 76.0703Z"
              fill="#BE63F9"/>
        <path d="M80.5309 49.4691C90.7156 52.4103 97.5 58.1953 97.5 65C97.5 47.0803 82.9197 32.5 65 32.5C71.8047 32.5 77.5897 39.2844 80.5309 49.4691Z"
              fill="#D9A4FC"/>
        <path d="M49.4691 49.4691C52.4103 39.2844 58.1953 32.5 65 32.5C47.0803 32.5 32.5 47.0803 32.5 65C32.5 58.1953 39.2844 52.4103 49.4691 49.4691Z"
              fill="#D9A4FC"/>
        <path d="M80.5309 80.5309C77.5897 90.7156 71.8047 97.5 65 97.5C82.9197 97.5 97.5 82.9197 97.5 65C97.5 71.8047 90.7156 77.5897 80.5309 80.5309Z"
              fill="#D9A4FC"/>
        <path d="M64.9998 82.6027C61.7254 82.6027 58.5851 82.3427 55.6235 81.8755C58.0285 88.2455 61.6198 92.0805 64.9998 92.0805C68.3798 92.0805 71.971 88.2455 74.376 81.8755C71.4144 82.3467 68.2741 82.6027 64.9998 82.6027Z"
              fill="#BE63F9"/>
        <path d="M74.376 48.1196C71.971 41.7536 68.3757 37.9146 64.9998 37.9146C61.6238 37.9146 58.0285 41.7496 55.6235 48.1196C58.5851 47.6524 61.7213 47.3924 64.9998 47.3924C68.2741 47.3964 71.4144 47.6524 74.376 48.1196Z"
              fill="#BE63F9"/>
        <path d="M48.1196 55.623C41.7496 58.0321 37.9146 61.6233 37.9146 64.9993C37.9146 68.3752 41.7496 71.9664 48.1196 74.3755C47.6524 71.4139 47.3924 68.2777 47.3924 64.9993C47.3964 61.7249 47.6524 58.5846 48.1196 55.623Z"
              fill="#BE63F9"/>
    </symbol>

    <symbol id="star-target" viewBox="0 0 130 130" fill="none">
        <path d="M105.625 130H24.375C10.9119 130 0 119.088 0 105.625V24.375C0 10.9119 10.9119 0 24.375 0H105.625C119.088 0 130 10.9119 130 24.375V105.625C130 119.088 119.088 130 105.625 130Z"
              fill="#FFE6E2"/>
        <path d="M57.9354 78.5384C57.5251 78.5384 57.1189 78.4166 56.7736 78.1728C56.1358 77.7259 55.8067 76.9581 55.9326 76.1903L57.0986 68.8778L52.0408 63.7347C51.5086 63.1903 51.3217 62.3981 51.5614 61.675C51.8011 60.9519 52.4226 60.4238 53.1742 60.306L60.0561 59.2335L63.1314 52.636C63.4604 51.921 64.2079 51.4822 64.9717 51.4619C65.7558 51.4619 66.4708 51.9129 66.8079 52.6238L69.9279 59.201L76.8139 60.2288C77.5695 60.3425 78.1951 60.8666 78.4389 61.5856C78.6867 62.3047 78.5039 63.105 77.9717 63.6494L72.9505 68.825L74.1692 76.1294C74.2951 76.8972 73.9742 77.6691 73.3405 78.12C72.6986 78.575 71.8658 78.6197 71.1873 78.2459L65.0448 74.8822L58.9267 78.2906C58.6139 78.4572 58.2726 78.5384 57.9354 78.5384Z"
              fill="#FC573B"/>
        <path d="M65.0008 92.7598C49.6933 92.7598 37.2417 80.3083 37.2417 65.0008C37.2417 49.6933 49.6933 37.2417 65.0008 37.2417C80.3083 37.2417 92.7598 49.6933 92.7598 65.0008C92.7598 80.3083 80.3083 92.7598 65.0008 92.7598ZM65.0008 42.657C52.6792 42.657 42.657 52.6792 42.657 65.0008C42.657 77.3223 52.6792 87.3445 65.0008 87.3445C77.3223 87.3445 87.3445 77.3223 87.3445 65.0008C87.3445 52.6792 77.3223 42.657 65.0008 42.657Z"
              fill="#FD907E"/>
        <path d="M64.9992 47.3972C63.5042 47.3972 62.2896 46.1825 62.2896 44.6875V35.2097C62.2896 33.7106 63.5042 32.5 64.9992 32.5C66.4942 32.5 67.7089 33.7147 67.7089 35.2097V44.6875C67.7089 46.1825 66.4942 47.3972 64.9992 47.3972Z"
              fill="#FD907E"/>
        <path d="M94.7896 67.7089H85.3117C83.8167 67.7089 82.6021 66.4942 82.6021 64.9992C82.6021 63.5042 83.8167 62.2896 85.3117 62.2896H94.7896C96.2886 62.2896 97.4992 63.5042 97.4992 64.9992C97.4992 66.4942 96.2886 67.7089 94.7896 67.7089Z"
              fill="#FD907E"/>
        <path d="M64.9992 97.4992C63.5042 97.4992 62.2896 96.2846 62.2896 94.7896V85.3117C62.2896 83.8167 63.5042 82.6021 64.9992 82.6021C66.4942 82.6021 67.7089 83.8167 67.7089 85.3117V94.7896C67.7089 96.2886 66.4942 97.4992 64.9992 97.4992Z"
              fill="#FD907E"/>
        <path d="M44.6875 67.7089H35.2097C33.7106 67.7089 32.5 66.4942 32.5 64.9992C32.5 63.5042 33.7147 62.2896 35.2097 62.2896H44.6875C46.1825 62.2896 47.3972 63.5042 47.3972 64.9992C47.3972 66.4942 46.1825 67.7089 44.6875 67.7089Z"
              fill="#FD907E"/>
    </symbol>
</svg>